<svg width="125" height="116" viewBox="0 0 125 116" fill="none" xmlns="http://www.w3.org/2000/svg">
<path d="M48.5401 109.14C46.7501 109.14 44.9901 109.14 43.1201 109.14C42.8901 105.05 42.7001 100.97 44.0701 97.0299C46.1301 91.1199 46.2401 85.0699 45.5301 78.9599C44.9401 73.9099 44.2201 68.8699 43.6101 63.8099C43.4601 62.5999 42.9201 62.0099 41.7301 61.6999C32.6901 59.3499 27.2701 53.6099 25.5201 44.3899C25.0501 41.9099 25.4901 39.9599 27.4001 38.1299C32.9901 32.7399 38.4501 27.2099 43.9401 21.7199C46.4201 19.2399 48.5901 16.5299 49.4001 13.0099C49.6801 11.7799 49.7601 10.5099 49.9401 9.18994C52.7001 9.18994 55.5001 9.18994 58.5601 9.18994C57.7501 10.8199 57.0001 12.3699 56.2201 13.8899C55.4401 15.4299 54.6001 16.9299 53.8301 18.4799C52.5001 21.1299 50.7301 23.4599 48.6401 25.5399C43.3901 30.7799 38.1601 36.0399 32.8701 41.2399C31.7001 42.3899 31.4201 43.6099 31.8101 45.1199C33.4901 51.7199 39.8101 56.4799 46.5601 56.1899C53.5501 55.8999 59.3701 50.7499 60.4901 43.8699C60.8601 41.5999 60.8601 41.5999 63.2101 41.5999C64.3301 41.5999 65.4401 41.5999 66.7001 41.5999C66.6601 46.6799 65.0001 51.0699 61.8101 54.8999C58.6201 58.7399 54.4101 60.8699 49.4901 62.0299C49.7901 64.5499 50.0901 67.0299 50.3801 69.5099C50.9401 74.3399 51.6201 79.1499 51.9901 83.9999C52.3101 88.1399 51.9001 92.2899 50.6201 96.2499C49.3401 100.22 48.9201 104.29 48.6401 108.41C48.6001 108.61 48.5701 108.84 48.5401 109.14Z" fill="#C5BDB1"/>
<path d="M97.6502 92.25C96.6402 98.09 95.6902 103.61 94.7302 109.17C92.8202 109.17 90.9802 109.17 88.9302 109.17C89.1402 107.37 89.2702 105.62 89.5602 103.9C90.5902 97.83 91.8002 91.78 92.7102 85.69C93.5602 80.05 94.2002 74.37 94.7602 68.69C95.6002 60.26 95.9402 51.8 95.6502 43.34C95.3502 34.73 94.7902 26.14 94.3502 17.54C94.2102 14.8 94.1202 12.07 94.0102 9.22998C95.7802 9.22998 97.5302 9.22998 99.4702 9.22998C99.9802 14.11 100.87 19.01 100.95 23.92C101.18 38.6 101.18 53.29 101.06 67.97C101.03 71.84 100.28 75.71 99.7202 79.56C99.4502 81.46 99.4202 83.22 100.46 84.92C101.24 86.2 101.86 87.59 102.69 88.84C105.59 93.23 106.79 98.12 107.04 103.29C107.13 105.21 107.05 107.15 107.05 109.15C104.95 109.15 102.93 109.15 100.69 109.15C101.45 103.29 101 97.67 97.6502 92.25Z" fill="#C5BDB1"/>
<path d="M71.7201 9.18994C73.7001 9.18994 75.5301 9.18994 77.4101 9.18994C77.4401 9.45994 77.4901 9.68994 77.4901 9.90994C77.6101 15.3899 77.6201 20.8699 77.8501 26.3499C78.2501 35.7999 78.9901 45.2199 80.7101 54.5399C81.8101 60.4899 83.2001 66.4399 82.8701 72.5299C82.6601 76.5099 81.8901 80.4699 81.2801 84.4299C80.5801 88.9599 79.7801 93.4799 79.0001 97.9999C78.3901 101.49 77.7601 104.98 77.0901 108.45C77.0301 108.74 76.5901 109.16 76.3101 109.17C74.8901 109.24 73.4701 109.2 71.9001 109.2C71.9801 107.85 72.0601 106.6 72.1201 105.35C72.5401 97.2399 74.4301 89.3499 75.6601 81.3599C76.3901 76.6299 77.2901 71.8999 76.6601 67.0899C76.1801 63.4199 75.5901 59.7699 74.9201 56.1299C72.4501 42.7199 71.4601 29.1899 71.7301 15.5699C71.7601 13.4699 71.7201 11.3599 71.7201 9.18994Z" fill="#C5BDB1"/>
<path d="M14.4802 24.5201C14.0502 24.7101 13.7102 24.8801 13.3602 25.0201C12.1402 25.5101 11.1202 25.2301 10.4102 24.2201C9.69023 23.2001 9.70023 22.2701 10.6202 21.2901C12.1602 19.6601 13.7302 18.0801 15.3602 16.5401C16.4902 15.4701 17.5602 15.5101 18.7202 16.6201C20.1702 18.0101 21.5902 19.4301 22.9802 20.8701C24.2402 22.1601 24.3702 23.2301 23.5102 24.3401C22.7002 25.3801 21.6202 25.5001 20.0902 24.7201C19.9302 24.6401 19.7602 24.5501 19.4202 24.3801C19.4202 26.3601 19.4302 28.1801 19.4202 30.0101C19.4202 30.7001 19.4302 31.4001 19.3602 32.0901C19.1802 33.7301 18.4102 34.4601 16.9402 34.4301C15.5002 34.4101 14.6902 33.6201 14.6302 31.9901C14.5502 29.7501 14.5702 27.5201 14.5402 25.2801C14.5302 25.0601 14.5002 24.8401 14.4802 24.5201Z" fill="#C5BDB1"/>
<path d="M33.69 65.3C35.38 65.72 36.94 66.1 38.66 66.52C38.52 68.49 38.38 70.46 38.22 72.56C35.91 71.99 33.77 71.45 31.46 70.88C32.21 69.01 32.93 67.21 33.69 65.3Z" fill="#C5BDB1"/>
<path d="M23.0198 54.7699C21.2198 55.6499 19.4998 56.4899 17.6598 57.3999C16.8798 55.3799 16.1198 53.3999 15.2998 51.2799C17.2998 50.7399 19.1698 50.2199 21.1298 49.6899C21.7598 51.3899 22.3698 53.0299 23.0198 54.7699Z" fill="#C5BDB1"/>
<path d="M29.2998 62.89C27.9398 64.72 26.8098 66.26 25.6098 67.88C24.0398 66.16 22.5398 64.52 21.0098 62.84C22.2898 61.81 23.5298 60.84 24.7298 59.82C25.2698 59.36 25.5998 59.45 26.0698 59.93C27.0798 60.94 28.1598 61.87 29.2998 62.89Z" fill="#C5BDB1"/>
<path d="M13.77 39.0601C15.87 39.0601 17.75 39.0601 19.75 39.0601C19.89 40.8201 20.03 42.5301 20.18 44.4201C18.22 44.6901 16.34 44.9501 14.24 45.2401C14.08 43.1701 13.93 41.1701 13.77 39.0601Z" fill="#C5BDB1"/>
</svg>
