<svg width="125" height="116" viewBox="0 0 125 116" fill="none" xmlns="http://www.w3.org/2000/svg">
<path d="M32.3201 60.68C30.9201 61.04 29.8401 61.32 28.5301 61.66C27.9701 59.77 27.4301 57.94 26.8301 55.9C29.2001 55.19 31.4701 54.51 33.8801 53.79C32.9301 51.85 32.0501 50.05 31.0501 48.02C32.8001 47.13 34.4901 46.26 36.3901 45.3C37.2701 46.94 38.1001 48.5 38.9501 50.08C44.1701 44.67 44.4801 37.33 39.6201 31.79C37.6801 29.58 35.6601 27.39 34.0201 24.95C31.6701 21.44 30.6101 17.51 31.7601 13.28C32.1101 12.01 32.7101 10.78 33.3401 9.61003C34.2601 7.91003 35.5801 7.13003 37.7101 7.15003C53.1501 7.25003 68.5901 7.24003 84.0401 7.16003C85.7501 7.15003 86.8301 7.75003 87.7201 9.04003C90.4001 12.93 90.7401 17.1 89.1601 21.49C87.8701 25.04 85.5001 27.84 82.9701 30.56C77.5901 36.35 77.4401 43.17 82.6201 49.61C83.4301 48.19 84.2101 46.84 85.1201 45.24C86.8501 46.16 88.5201 47.05 90.3901 48.04C89.4001 49.98 88.4701 51.81 87.4601 53.8C89.8401 54.49 92.1201 55.15 94.6201 55.87C94.1001 57.78 93.6001 59.61 93.0501 61.63C91.8301 61.35 90.7001 61.1 89.9801 60.94C90.3301 65.29 90.9101 69.63 90.9801 73.99C91.0501 78.28 89.6001 82.3 87.6101 86.07C83.5801 93.72 79.4801 101.33 75.4601 108.98C74.9301 109.99 74.3401 110.4 73.1601 110.39C64.9001 110.33 56.6401 110.34 48.3901 110.39C47.2201 110.4 46.6301 110 46.0901 108.98C42.2401 101.69 38.3701 94.42 34.4201 87.18C30.0001 79.09 29.1801 70.7 32.0501 61.94C32.1501 61.62 32.1901 61.3 32.3201 60.68ZM45.0501 52.57C55.8201 52.57 66.2801 52.57 76.9601 52.57C76.5401 51.81 76.2301 51.24 75.9001 50.67C70.7301 41.63 71.7601 33.4 78.9001 25.88C80.2701 24.43 81.6701 22.87 82.5101 21.1C83.3301 19.37 83.6501 17.32 83.8401 15.38C83.9901 13.82 83.0601 13.19 81.3201 13.2C67.7001 13.29 54.0901 13.25 40.4701 13.25C37.9601 13.25 37.4901 13.69 37.4301 16.24C37.4201 16.83 37.5201 17.44 37.6501 18.02C38.3701 21.39 40.5401 23.84 42.8301 26.23C46.2401 29.8 48.7701 33.8 49.1701 38.89C49.5701 43.89 47.9001 48.25 45.0501 52.57ZM63.8301 104.27C66.1301 104.27 68.1901 104.33 70.2501 104.22C70.7001 104.2 71.3001 103.69 71.5401 103.25C75.3001 96.23 79.2201 89.29 82.6901 82.13C86.1701 74.96 85.8201 67.64 82.4101 60.33C81.9701 60.63 81.6301 60.82 81.3201 61.07C75.9701 65.43 70.6501 69.83 65.2701 74.14C64.1501 75.04 63.7901 75.99 63.8001 77.38C63.8601 85.56 63.8301 93.74 63.8301 101.91C63.8301 102.64 63.8301 103.35 63.8301 104.27ZM57.6601 104.27C57.6601 94.72 57.6801 85.48 57.6101 76.23C57.6101 75.64 57.0401 74.91 56.5401 74.48C53.8901 72.22 51.1701 70.04 48.4701 67.84C45.4801 65.4 42.4801 62.97 39.2701 60.36C35.7401 67.9 35.3101 75.22 38.9101 82.45C42.4001 89.45 46.2301 96.29 49.9501 103.17C50.2101 103.65 50.8801 104.19 51.3901 104.22C53.3901 104.34 55.3901 104.27 57.6601 104.27ZM47.1001 58.83C51.6401 62.54 55.7501 65.96 59.9501 69.26C60.3201 69.55 61.4401 69.35 61.9101 68.99C64.8701 66.69 67.7501 64.29 70.6501 61.91C71.8001 60.97 72.9201 60 74.3101 58.82C65.1201 58.83 56.3701 58.83 47.1001 58.83Z" fill="#C5BDB1"/>
<path d="M57.8101 46.52C57.8101 44.61 57.8101 42.71 57.8101 40.71C59.8101 40.71 61.7101 40.71 63.7201 40.71C63.7201 42.68 63.7201 44.52 63.7201 46.52C61.7501 46.52 59.8501 46.52 57.8101 46.52Z" fill="#C5BDB1"/>
<path d="M100.97 33.98C103.36 33.98 105.57 33.98 107.78 33.98C108.31 33.98 108.84 33.99 109.37 34.06C110.69 34.22 111.51 35.12 111.53 36.34C111.54 37.61 110.71 38.65 109.39 38.74C107.59 38.86 105.77 38.83 103.96 38.86C103.06 38.87 102.16 38.86 101.11 38.86C101.37 39.36 101.58 39.73 101.75 40.12C102.26 41.24 102.03 42.28 101.15 42.99C100.12 43.81 99.08 43.85 98.09 43C97.21 42.25 96.4 41.42 95.59 40.61C94.75 39.77 93.9 38.94 93.12 38.05C92.13 36.94 92.09 35.86 93.1 34.79C94.66 33.13 96.27 31.52 97.93 29.96C98.97 28.98 100.17 28.99 101.16 29.79C102.12 30.58 102.28 31.74 101.58 32.99C101.43 33.25 101.26 33.51 100.97 33.98Z" fill="#C5BDB1"/>
<path d="M19.8399 34.2699C17.4499 34.2699 15.2399 34.2699 13.0299 34.2699C12.4999 34.2699 11.9699 34.2799 11.4399 34.3499C10.1199 34.5099 9.29987 35.4099 9.27987 36.6299C9.26987 37.8999 10.0999 38.9399 11.4199 39.0299C13.2199 39.1499 15.0399 39.1199 16.8499 39.1499C17.7499 39.1599 18.6499 39.1499 19.6999 39.1499C19.4399 39.6499 19.2299 40.0199 19.0599 40.4099C18.5499 41.5299 18.7799 42.5699 19.6599 43.2799C20.6899 44.0999 21.7299 44.1399 22.7199 43.2899C23.5999 42.5399 24.4099 41.7099 25.2199 40.8999C26.0599 40.0599 26.9099 39.2299 27.6899 38.3399C28.6799 37.2299 28.7199 36.1499 27.7099 35.0799C26.1499 33.4199 24.5399 31.8099 22.8799 30.2499C21.8399 29.2699 20.6399 29.2799 19.6499 30.0799C18.6899 30.8699 18.5299 32.0299 19.2299 33.2799C19.3899 33.5399 19.5599 33.7999 19.8399 34.2699Z" fill="#C5BDB1"/>
</svg>
