<svg width="125" height="116" viewBox="0 0 125 116" fill="none" xmlns="http://www.w3.org/2000/svg">
<path d="M66.4899 59.12C66.4899 52.84 66.1399 46.53 66.5699 40.27C67.3299 29.23 77.2199 20.95 88.2599 21.62C103.89 22.57 116.33 33.3 120.5 49.43C124.79 66.05 118.14 83.79 104.28 92.47C97.7599 96.55 90.6299 98.49 83.0099 97.06C73.2399 95.23 66.5199 86.41 66.3399 75.67C66.2499 70.15 66.3199 64.63 66.3199 59.11C66.3799 59.12 66.4399 59.12 66.4899 59.12ZM73.2999 59.31C73.3099 59.31 73.3099 59.31 73.3199 59.31C73.3199 64.98 73.3199 70.64 73.3299 76.31C73.3299 76.84 73.4099 77.38 73.4599 77.91C74.1799 85.29 80.4599 90.76 87.8299 90.52C92.9499 90.36 97.5599 88.76 101.75 85.85C111.78 78.89 117 65.2 114.15 52.75C111.32 40.42 104.37 31.73 91.5699 28.96C79.6999 26.39 72.7899 34.91 73.2599 43.69C73.5199 48.88 73.2999 54.1 73.2999 59.31Z" fill="#C5BDB1"/>
<path d="M59.2901 59.3099C59.2901 65.6699 59.6401 72.0499 59.2101 78.3899C58.4301 89.8599 48.3101 98.3699 36.9001 97.3899C21.8801 96.0999 12.1301 87.6599 6.74008 74.0399C7.70092e-05 57.0399 5.88008 37.3099 20.3401 27.3899C27.0301 22.7999 34.4601 20.6399 42.5401 21.9599C52.4401 23.5799 59.3101 32.1799 59.4801 42.7599C59.5701 48.2699 59.5001 53.7899 59.5001 59.3099C59.4301 59.3099 59.3601 59.3099 59.2901 59.3099ZM52.5101 59.5099C52.5101 53.8399 52.6001 48.1799 52.4901 42.5099C52.3201 33.9399 45.9401 28.1399 37.4001 28.5899C32.5301 28.8399 28.1401 30.4199 24.1501 33.1699C6.88008 45.1099 6.55008 73.1399 23.5401 85.4699C27.4601 88.3099 31.8001 89.8899 36.6501 90.4599C46.1001 91.5699 52.5801 83.8899 52.5201 76.0399C52.4701 70.5299 52.5101 65.0199 52.5101 59.5099Z" fill="#C5BDB1"/>
<path d="M108.02 59.46C107.92 65.57 106.29 71.12 102.49 75.91C100.99 77.8 98.8502 78.11 97.2902 76.81C95.7802 75.54 95.4702 73.62 96.8802 71.91C102.48 65.12 102.39 53.87 96.9102 47.2C95.4402 45.41 95.7802 43.39 97.4302 42.15C98.9702 40.99 101.02 41.33 102.45 43.13C106.27 47.91 107.9 53.46 108.02 59.46Z" fill="#C5BDB1"/>
<path d="M17.8301 56.6599C17.8601 53.7299 19.4301 48.3899 22.9001 43.6799C24.5701 41.4099 26.6401 40.8599 28.3601 42.1199C30.1801 43.4599 30.2401 45.3599 28.5301 47.7299C23.4601 54.7499 23.4501 64.2999 28.5201 71.3199C30.2401 73.6999 30.1901 75.5899 28.3801 76.9299C26.6601 78.1999 24.6201 77.6299 22.9101 75.4099C19.7001 71.2399 17.8401 65.3899 17.8301 56.6599Z" fill="#C5BDB1"/>
</svg>
