<svg width="125" height="116" viewBox="0 0 125 116" fill="none" xmlns="http://www.w3.org/2000/svg">
<path d="M64.63 109.19C53.49 109.19 42.35 109.13 31.21 109.24C28.73 109.26 27.4 108.33 26.52 106.09C20.58 91.05 21.42 76.5 29.53 62.46C30.21 61.28 30.23 60.44 29.69 59.19C22.25 41.88 23.12 25.06 32.8 8.78004C33.94 6.86004 35.38 6.06004 37.7 6.07004C55.75 6.16004 73.8 6.14004 91.86 6.09004C93.83 6.08004 95.13 6.74004 96.15 8.41004C106.1 24.74 107.02 41.67 99.54 59.14C98.96 60.48 99.05 61.36 99.76 62.59C107.83 76.65 108.64 91.21 102.63 106.23C101.76 108.41 100.42 109.26 98.06 109.24C86.91 109.14 75.77 109.19 64.63 109.19ZM95.18 66.89C94.55 67.65 94.08 68.3 93.53 68.86C92.32 70.09 90.92 70.17 89.53 69.24C88.22 68.37 87.96 66.56 88.84 65.12C89.08 64.72 89.41 64.38 89.67 63.99C100.58 47.74 101.18 30.95 92.28 13.66C91.68 12.5 90.92 12.13 89.6 12.13C72.96 12.18 56.32 12.18 39.69 12.13C38.28 12.13 37.53 12.6 36.89 13.79C30.15 26.11 28.96 39 33.51 52.2C35.01 56.55 37.72 60.51 40.03 64.56C41.1 66.43 41.16 68.12 39.75 69.21C38.36 70.28 36.56 69.92 35.19 68.28C34.83 67.85 34.48 67.41 34.05 66.89C33.78 67.3 33.62 67.51 33.5 67.74C27.93 78.8 27.34 90.15 31.37 101.82C31.81 103.09 32.58 103.16 33.65 103.15C42.3 103.13 50.96 103.14 59.61 103.13C60.2 103.13 60.78 103.07 61.41 103.03C62.04 97.95 60.84 93.44 57.89 89.48C56.26 87.3 54.25 85.39 52.37 83.4C51.14 82.1 50.9 80.29 51.92 79.05C52.94 77.81 54.8 77.64 56.25 78.75C57.21 79.48 58.15 80.27 58.93 81.18C60.91 83.49 62.79 85.89 64.49 87.99C67.07 85.12 69.6 82.1 72.35 79.31C74.07 77.56 76.08 77.61 77.29 79.02C78.5 80.43 77.94 82.13 76.33 83.92C73.97 86.54 71.65 89.26 69.76 92.21C67.69 95.44 67.37 99.19 67.83 103.13C68.51 103.13 69.03 103.13 69.56 103.13C78.21 103.13 86.87 103.08 95.52 103.17C97.05 103.19 97.6 102.59 98.04 101.29C100.61 93.76 101.16 86.1 99.53 78.32C98.7 74.35 97.4 70.51 95.18 66.89Z" fill="#C5BDB1"/>
<path d="M87.9799 54.64C87.5599 55.77 87.4299 56.4501 87.0799 56.9901C85.9499 58.7301 84.8099 60.45 83.5599 62.1C82.5099 63.49 80.7899 63.7201 79.4599 62.8301C78.1499 61.9501 77.6999 60.22 78.5999 58.76C79.7899 56.83 80.9699 54.85 82.4799 53.18C83.1199 52.47 84.7199 52.0301 85.6299 52.3101C86.5999 52.6101 87.2699 53.89 87.9799 54.64Z" fill="#C5BDB1"/>
<path d="M51.38 60.6699C50.67 61.4799 50.06 62.7499 49.14 63.0299C48.2 63.3199 46.56 62.9999 45.93 62.3099C44.37 60.5999 43.12 58.5799 41.93 56.5799C41 54.9999 41.58 53.2699 43.04 52.4299C44.44 51.6299 46.01 52.0199 47.06 53.4999C48.18 55.0799 49.28 56.6699 50.33 58.2999C50.73 58.8899 50.92 59.5999 51.38 60.6699Z" fill="#C5BDB1"/>
<path d="M40.05 34.78C41.5 35.01 42.68 35.73 42.89 37.48C43.12 39.4 43.34 41.33 43.52 43.25C43.67 44.88 42.59 46.32 41.03 46.64C39.51 46.95 37.93 46 37.62 44.3C37.24 42.21 36.98 40.07 36.91 37.94C36.85 36.16 38.31 34.8 40.05 34.78Z" fill="#C5BDB1"/>
<path d="M92.28 39.43C92.13 40.56 91.98 42.3 91.65 43.99C91.28 45.87 89.8499 46.92 88.2699 46.65C86.5599 46.36 85.5 44.8 85.73 42.94C85.91 41.42 86.1 39.89 86.24 38.36C86.46 36.01 87.61 34.67 89.4 34.77C91.29 34.89 92.43 36.48 92.28 39.43Z" fill="#C5BDB1"/>
<path d="M46.2002 21.83C45.5502 23.46 44.8802 25.64 43.8302 27.63C43.1202 28.98 41.5801 29.1 40.2601 28.51C38.9301 27.91 38.1502 26.7 38.5602 25.23C39.0902 23.37 39.7701 21.54 40.6001 19.8C41.2301 18.46 42.5402 17.9 43.9902 18.31C45.4202 18.7 46.2002 19.75 46.2002 21.83Z" fill="#C5BDB1"/>
<path d="M86.2901 18.2C88.8101 18.41 89.1101 20.82 89.8601 22.73C90.5501 24.49 91.5701 26.39 89.6401 28.08C88.1501 29.38 85.7801 28.86 84.9401 26.97C84.2601 25.45 83.6801 23.87 83.1801 22.28C82.5101 20.14 83.9201 18.18 86.2901 18.2Z" fill="#C5BDB1"/>
<path d="M64.6198 45.79C66.3298 45.8 67.6798 47.2 67.6098 48.91C67.5498 50.54 66.2198 51.81 64.5898 51.8C62.8798 51.79 61.5298 50.39 61.5998 48.68C61.6598 47.06 62.9898 45.78 64.6198 45.79Z" fill="#C5BDB1"/>
</svg>
