<svg width="125" height="116" viewBox="0 0 125 116" fill="none" xmlns="http://www.w3.org/2000/svg">
<path d="M92.68 40.29C96.61 40.29 100.53 40.24 104.45 40.3C112.09 40.43 118.36 45.21 119.66 52.15C120.67 57.57 119.3 62.64 116.4 67.28C110.23 77.14 97.61 81.87 85.79 78.81C74.32 75.85 66.69 67 66.02 55.89C65.54 48.04 71.43 41.01 79.28 40.46C83.73 40.15 88.21 40.4 92.68 40.4C92.68 40.37 92.68 40.33 92.68 40.29ZM81.71 45.21C75.47 44.88 69.41 49.79 71.24 58.23C73.21 67.33 79.3901 72.28 88.1601 74.29C97.0101 76.32 106.74 72.61 111.69 65.47C113.76 62.49 114.89 59.21 115.01 55.57C115.18 50.33 111.29 45.86 106.04 45.35C105.66 45.31 105.28 45.26 104.9 45.26C100.87 45.25 96.84 45.26 92.81 45.26V45.25C89.11 45.25 85.4 45.41 81.71 45.21Z" fill="#C5BDB1"/>
<path d="M92.92 69.94C97.27 69.87 101.21 68.71 104.62 66.01C105.96 64.94 106.18 63.42 105.26 62.31C104.36 61.23 102.99 61.02 101.78 62.02C96.95 66 88.95 65.93 84.21 62.04C82.93 60.99 81.5 61.24 80.62 62.41C79.8 63.5 80.04 64.96 81.32 65.98C84.71 68.7 88.65 69.86 92.92 69.94Z" fill="#C5BDB1"/>
<path d="M35.3099 41C39.2399 41 43.1599 40.95 47.0799 41.01C54.7199 41.14 60.9899 45.92 62.2899 52.86C63.2999 58.28 61.9299 63.35 59.0299 67.99C52.8599 77.85 40.2399 82.58 28.4199 79.52C16.9499 76.56 9.31993 67.72 8.64993 56.61C8.16993 48.76 14.0599 41.73 21.9099 41.18C26.3599 40.87 30.8399 41.12 35.3099 41.12C35.3099 41.08 35.3099 41.04 35.3099 41ZM24.3399 45.92C18.0999 45.59 12.0399 50.5 13.8699 58.94C15.8399 68.04 22.0199 72.99 30.7899 75C39.6399 77.03 49.3699 73.32 54.3199 66.18C56.3899 63.2 57.5199 59.92 57.6399 56.28C57.8099 51.04 53.9199 46.57 48.6699 46.06C48.2899 46.02 47.9099 45.97 47.5299 45.97C43.4999 45.96 39.4699 45.97 35.4399 45.97V45.96C31.7399 45.96 28.0299 46.12 24.3399 45.92Z" fill="#C5BDB1"/>
<path d="M35.5499 70.6499C39.8999 70.5799 43.8399 69.4199 47.2499 66.7199C48.5899 65.6499 48.8099 64.1299 47.8899 63.0199C46.9899 61.9399 45.6199 61.7299 44.4099 62.7299C39.5799 66.7099 31.5799 66.6399 26.8399 62.7499C25.5599 61.6999 24.1299 61.9499 23.2499 63.1199C22.4299 64.2099 22.6699 65.6699 23.9499 66.6899C27.3399 69.4099 31.2799 70.5699 35.5499 70.6499Z" fill="#C5BDB1"/>
</svg>
