<svg width="125" height="116" viewBox="0 0 125 116" fill="none" xmlns="http://www.w3.org/2000/svg">
<path d="M56.2499 80.6899C50.0399 82.2999 44.1799 82.5599 38.2599 81.7299C36.7399 81.5199 35.5699 80.9999 35.8399 79.2599C36.1199 77.5099 37.4199 77.4699 38.9099 77.6399C44.3999 78.2699 49.8799 78.3199 55.2199 76.6099C56.9199 76.0699 58.4999 75.1599 60.3799 74.3099C53.8099 61.3699 43.8299 53.5899 29.8799 50.7799C28.9199 52.1299 29.3499 54.9099 26.5999 54.2999C24.3599 53.7999 25.3799 51.8499 25.2899 50.4799C21.8499 49.4499 21.4099 49.6699 20.8099 52.8499C19.3099 60.8499 20.4699 68.6499 22.4699 76.4299C24.6199 84.7999 26.5299 93.2299 28.5399 101.63C28.6199 101.97 28.6599 102.32 28.7199 102.67C28.9299 103.95 28.5399 104.98 27.1999 105.27C25.8799 105.55 25.0799 104.82 24.7699 103.53C23.7499 99.2899 22.7199 95.0599 21.7199 90.8299C20.0599 83.7899 18.1899 76.7899 16.8399 69.6899C14.4399 57.1299 16.8699 45.3599 23.5899 34.4999C26.7699 29.3599 30.2099 24.3299 31.3799 18.2399C31.9199 15.4199 32.1699 12.5399 32.5499 9.68993C32.7199 8.37993 33.2599 7.26993 34.7399 7.34993C36.3299 7.43993 36.7999 8.58993 36.6999 10.0399C36.6699 10.4599 36.6799 10.8899 36.6399 11.3099C35.9899 17.2999 34.4899 23.0499 31.8499 28.4799C31.5499 29.0999 31.2499 29.7299 30.9399 30.3699C34.3699 30.9699 34.7199 30.7199 36.5299 28.2599C36.9999 27.6199 38.3499 27.1799 39.1399 27.3499C39.6599 27.4699 39.9599 28.8399 40.2099 29.6899C40.3099 30.0099 39.9899 30.4599 39.9699 30.5099C55.0799 36.8499 70.2199 36.8499 85.3799 30.5599C85.3099 30.2499 84.8799 29.4999 85.0599 28.9499C85.2899 28.2599 85.9299 27.3899 86.5599 27.2299C87.1899 27.0699 88.5499 27.5399 88.6699 27.9799C89.5299 31.1399 91.9599 30.6099 94.4399 30.5999C94.2199 30.0599 94.0699 29.5799 93.8499 29.1299C91.0499 23.5299 89.4399 17.5999 88.7799 11.3899C88.7299 10.8999 88.7399 10.4099 88.7099 9.90993C88.6199 8.51993 89.1499 7.46993 90.5999 7.34993C92.0799 7.22993 92.7999 8.27993 92.8399 9.60993C93.1599 18.7199 96.6399 26.7699 101.62 34.1199C110.15 46.7299 111.65 60.1499 107.66 74.6199C105.14 83.7599 103.19 93.0499 100.98 102.27C100.83 102.88 100.84 103.68 100.45 104.06C99.8699 104.63 98.9199 105.33 98.2799 105.2C97.6499 105.08 96.9899 104.08 96.7199 103.33C96.5099 102.76 96.8599 101.96 97.0199 101.28C99.5199 90.6099 102.13 79.9699 104.51 69.2699C105.82 63.3599 105.58 57.3699 104.32 51.4499C103.7 48.5399 101.6 50.7799 100.15 49.9699C100.06 51.8599 101.07 53.9499 98.6699 54.3399C96.1999 54.7499 96.3999 52.3999 95.7399 51.0099C85.0599 51.1599 70.5999 62.0199 65.0999 74.3899C67.2599 75.2699 69.3499 76.3699 71.5699 76.9699C76.5299 78.2899 81.5999 78.2599 86.6599 77.6099C88.0799 77.4299 89.2999 77.5899 89.5699 79.1999C89.8599 80.9299 88.7499 81.5099 87.2099 81.7199C81.6399 82.4799 76.1299 82.3799 70.6499 81.0399C70.2599 80.9399 69.8499 80.9199 69.1999 80.8299C69.4399 84.5299 69.6699 88.0999 69.8999 91.6699C70.1299 95.2499 70.3499 98.8399 70.5999 102.42C70.6999 103.81 70.4999 105.1 68.8699 105.28C67.0899 105.48 66.6199 104.17 66.5199 102.71C66.0299 95.6199 65.4799 88.5199 65.1199 81.4199C65.0299 79.5299 64.7199 78.1099 62.5899 77.5799C60.9399 78.1799 60.4299 79.4499 60.3399 81.3899C60.0399 88.2799 59.4899 95.1599 59.0299 102.05C58.9999 102.54 59.0699 103.18 58.7999 103.48C58.1799 104.18 57.3699 104.71 56.6399 105.32C56.0499 104.58 54.9399 103.83 54.9499 103.09C54.9899 99.3599 55.3199 95.6399 55.5499 91.9199C55.7399 88.2799 55.9899 84.6399 56.2499 80.6899ZM62.6799 69.6399C71.9699 54.6299 85.3199 46.9099 103.13 45.8699C101.3 42.3899 99.7299 39.2699 98.0099 36.2399C97.6999 35.6999 96.8099 35.3299 96.1199 35.1799C90.4299 33.9599 84.9099 35.0399 79.5099 36.7399C68.5899 40.1799 57.7399 40.4799 46.7599 36.9599C41.9399 35.4099 36.9699 34.2799 31.8299 34.7999C30.3599 34.9499 28.2599 35.1099 27.6099 36.0599C25.5899 39.0199 24.1299 42.3699 22.2699 45.8999C40.2099 46.8799 53.5699 54.5599 62.6799 69.6399Z" fill="#C5BDB1"/>
<path d="M56.5098 106.22L56.1098 105.72C55.9498 105.52 55.7298 105.3 55.4998 105.07C54.8998 104.48 54.2698 103.86 54.2798 103.09C54.3098 100.23 54.5098 97.34 54.7098 94.54C54.7698 93.66 54.8298 92.77 54.8898 91.89C55.0498 89.36 55.2198 86.82 55.3898 84.19L55.5698 81.53C49.7798 82.93 44.0798 83.2 38.1798 82.37C37.2998 82.25 36.2198 82 35.6098 81.18C35.2198 80.66 35.0898 79.98 35.2198 79.17C35.6198 76.64 37.8998 76.9 38.9898 77.02C45.5598 77.77 50.5098 77.46 55.0298 76.02C56.1398 75.67 57.2198 75.14 58.3598 74.58C58.7398 74.4 59.1198 74.21 59.5098 74.02C53.0598 61.66 43.4598 54.28 30.1898 51.5C30.0598 51.78 29.9598 52.11 29.8598 52.46C29.4998 53.66 28.9498 55.48 26.4598 54.93C24.2198 54.43 24.4498 52.61 24.5898 51.52C24.6098 51.33 24.6398 51.14 24.6498 50.96C23.3998 50.6 22.6098 50.46 22.2498 50.67C21.8898 50.89 21.6698 51.72 21.4298 52.97C19.8098 61.62 21.4598 69.97 23.0798 76.28C24.5998 82.19 26.0198 88.22 27.3898 94.06C27.9698 96.54 28.5598 99.02 29.1498 101.49C29.2198 101.77 29.2598 102.04 29.2998 102.31L29.3398 102.58C29.6298 104.36 28.8898 105.57 27.3298 105.9C25.7498 106.23 24.5598 105.4 24.1498 103.69C23.7898 102.19 23.4298 100.69 23.0698 99.19C22.4098 96.46 21.7498 93.72 21.1098 90.99C20.6298 88.93 20.1198 86.88 19.6198 84.82C18.4198 79.92 17.1798 74.86 16.2198 69.82C13.8398 57.34 16.1398 45.35 23.0598 34.17C23.3798 33.65 23.7098 33.12 24.0398 32.6C26.8398 28.12 29.7398 23.48 30.7698 18.13C31.1398 16.18 31.3798 14.17 31.6098 12.22C31.7098 11.35 31.8198 10.48 31.9298 9.60998C32.2598 7.10998 33.6598 6.65998 34.7898 6.71998C35.5998 6.75998 36.2398 7.03998 36.6798 7.54998C37.1998 8.13998 37.4198 8.98998 37.3398 10.09C37.3298 10.26 37.3198 10.43 37.3198 10.6C37.3098 10.85 37.2998 11.11 37.2798 11.38C36.5798 17.79 34.9998 23.47 32.4298 28.76C32.2498 29.13 32.0698 29.51 31.8898 29.88C34.2798 30.25 34.5098 29.95 36.0298 27.88C36.6398 27.05 38.2298 26.49 39.2898 26.73C40.0998 26.91 40.4198 28.04 40.7198 29.12C40.7598 29.25 40.7898 29.38 40.8298 29.5C40.8998 29.73 40.8798 29.96 40.8298 30.16C55.3098 36.07 70.0298 36.08 84.5998 30.19C84.4498 29.77 84.3098 29.24 84.4798 28.74C84.7698 27.87 85.5498 26.83 86.4198 26.61C87.2698 26.39 89.0498 26.91 89.2998 27.81C89.8898 29.99 91.1498 30.05 93.5098 29.98C93.5198 29.98 93.5298 29.98 93.5398 29.98C93.4598 29.78 93.3798 29.59 93.2898 29.41C90.5698 23.97 88.8498 17.92 88.1598 11.45C88.1298 11.13 88.1198 10.82 88.1098 10.52C88.0998 10.33 88.0998 10.14 88.0898 9.94998C87.9698 8.05998 88.8898 6.85998 90.5598 6.71998C91.3498 6.65998 92.0398 6.85998 92.5498 7.31998C93.1198 7.82998 93.4598 8.62998 93.4898 9.58998C93.7798 17.66 96.6098 25.57 102.16 33.77C110.49 46.09 112.5 59.51 108.29 74.79C106.56 81.06 105.07 87.52 103.64 93.76C102.98 96.6 102.31 99.54 101.62 102.42C101.58 102.58 101.56 102.75 101.53 102.92C101.44 103.47 101.35 104.09 100.92 104.51C100.45 104.97 99.2498 106.02 98.1898 105.83C97.1598 105.64 96.3998 104.26 96.1498 103.56C95.9198 102.93 96.1198 102.23 96.2998 101.62C96.3498 101.46 96.3898 101.3 96.4298 101.15C97.2198 97.8 98.0098 94.46 98.8098 91.12C100.52 83.93 102.29 76.49 103.92 69.15C105.12 63.75 105.06 57.84 103.73 51.6C103.47 50.4 103.13 50.46 102.1 50.67C101.72 50.75 101.28 50.83 100.83 50.81C100.84 50.99 100.86 51.18 100.88 51.36C101.01 52.73 101.19 54.6 98.8098 54.99C96.3898 55.39 95.8798 53.56 95.5498 52.35C95.4898 52.11 95.4198 51.89 95.3498 51.68C84.9498 52.1 71.4798 62.38 65.9798 74.08C66.4598 74.28 66.9298 74.49 67.3998 74.7C68.8198 75.33 70.2898 75.98 71.7698 76.38C76.1298 77.54 80.8498 77.74 86.6198 77C87.4098 76.9 89.8098 76.59 90.2398 79.11C90.3798 79.94 90.2498 80.64 89.8598 81.17C89.2398 82.01 88.1198 82.25 87.3398 82.36C81.3098 83.19 75.8098 82.96 70.5398 81.67C70.3598 81.63 70.1598 81.6 69.9198 81.57L70.7698 94.86C70.9298 97.37 71.0898 99.89 71.2598 102.4C71.3198 103.21 71.4898 105.66 68.9698 105.94C68.1498 106.03 67.4798 105.86 66.9698 105.43C66.1498 104.74 65.9798 103.59 65.9198 102.78C65.7998 101.09 65.6798 99.41 65.5598 97.72C65.1798 92.4 64.7898 86.9 64.5098 81.48C64.4198 79.63 64.1198 78.7 62.6498 78.28C61.5298 78.76 61.0698 79.64 60.9998 81.45C60.7798 86.58 60.4098 91.78 60.0598 96.81C59.9398 98.58 59.8098 100.35 59.6898 102.12C59.6798 102.23 59.6798 102.34 59.6798 102.45C59.6698 102.95 59.6598 103.52 59.2998 103.93C58.8198 104.47 58.2498 104.91 57.6998 105.34C57.4898 105.5 57.2798 105.67 57.0698 105.84L56.5098 106.22ZM34.5798 7.95998C33.9798 7.95998 33.3798 8.21998 33.1798 9.74998C33.0698 10.61 32.9598 11.48 32.8598 12.34C32.6298 14.31 32.3798 16.35 31.9998 18.34C30.9298 23.92 27.9698 28.66 25.0998 33.25C24.7698 33.77 24.4498 34.29 24.1298 34.81C17.3898 45.71 15.1398 57.4 17.4598 69.55C18.4098 74.56 19.6498 79.6 20.8398 84.49C21.3398 86.55 21.8498 88.61 22.3298 90.67C22.9698 93.41 23.6298 96.14 24.2898 98.87C24.6498 100.37 25.0198 101.87 25.3798 103.37C25.7098 104.75 26.4998 104.76 27.0698 104.64C27.4198 104.57 28.3498 104.37 28.0898 102.76L28.0498 102.48C28.0098 102.23 27.9798 101.99 27.9198 101.77C27.3298 99.29 26.7398 96.81 26.1598 94.33C24.7898 88.5 23.3698 82.47 21.8598 76.58C20.2098 70.14 18.5298 61.62 20.1898 52.72C20.4698 51.25 20.7398 50.09 21.5898 49.57C22.4798 49.03 23.6998 49.33 25.4698 49.86L25.8898 50L25.9198 50.44C25.9498 50.84 25.8898 51.27 25.8398 51.67C25.6698 53 25.6998 53.45 26.7298 53.68C28.0198 53.96 28.2398 53.43 28.6398 52.08C28.8198 51.5 28.9998 50.9 29.3498 50.41L29.5898 50.08L29.9898 50.16C44.1098 53 54.2298 60.81 60.9398 74.02L61.2398 74.61L60.6398 74.88C60.0398 75.15 59.4698 75.43 58.9098 75.7C57.7198 76.28 56.5998 76.82 55.4098 77.21C50.7098 78.71 45.5898 79.04 38.8398 78.26C37.1398 78.07 36.6298 78.3 36.4698 79.34C36.3998 79.81 36.4498 80.16 36.6298 80.4C36.8798 80.74 37.4298 80.96 38.3598 81.09C44.3798 81.94 50.1798 81.61 56.1098 80.07L56.9598 79.85L56.6698 84.25C56.4998 86.89 56.3298 89.42 56.1698 91.95C56.1098 92.84 56.0498 93.72 55.9898 94.61C55.7998 97.39 55.5998 100.27 55.5698 103.09C55.5698 103.32 56.0698 103.82 56.4098 104.16C56.5098 104.26 56.5998 104.35 56.6998 104.45C56.7598 104.4 56.8198 104.35 56.8898 104.31C57.4198 103.9 57.9198 103.52 58.3198 103.06C58.3698 102.97 58.3798 102.6 58.3798 102.4C58.3798 102.26 58.3798 102.13 58.3898 102C58.5098 100.23 58.6298 98.46 58.7598 96.69C59.1098 91.67 59.4798 86.47 59.6998 81.36C59.7798 79.65 60.1498 77.79 62.3598 76.98L62.5398 76.91L62.7298 76.96C65.3398 77.6 65.6498 79.5 65.7398 81.38C66.0098 86.79 66.3998 92.28 66.7798 97.59C66.8998 99.28 67.0198 100.96 67.1398 102.65C67.1998 103.56 67.3998 104.13 67.7398 104.42C67.9798 104.62 68.3198 104.69 68.7898 104.64C69.6198 104.55 70.0798 104.16 69.9598 102.45C69.7798 99.94 69.6298 97.42 69.4698 94.9L68.4898 80.1L69.2598 80.21C69.4798 80.24 69.6698 80.26 69.8498 80.28C70.1898 80.32 70.4898 80.35 70.7798 80.43C75.8898 81.69 81.2298 81.91 87.0998 81.1C87.9698 80.98 88.5198 80.76 88.7698 80.41C88.9598 80.16 89.0098 79.8 88.9198 79.31C88.7798 78.45 88.3798 78.03 86.7098 78.24C80.7698 79 75.8998 78.79 71.3798 77.58C69.7998 77.16 68.2898 76.49 66.8198 75.84C66.1698 75.55 65.4898 75.25 64.8298 74.98L64.2198 74.73L64.4898 74.13C70.0598 61.62 84.6398 50.52 95.6998 50.37L96.1098 50.36L96.2798 50.73C96.4698 51.12 96.5898 51.56 96.6998 51.98C97.0698 53.32 97.2898 53.91 98.5298 53.7C99.6198 53.52 99.6998 53.08 99.5498 51.44C99.4998 50.95 99.4598 50.44 99.4798 49.92L99.5298 48.9L100.42 49.39C100.77 49.58 101.26 49.48 101.79 49.38C102.76 49.19 104.39 48.87 104.91 51.29C106.27 57.71 106.34 63.8 105.1 69.38C103.47 76.73 101.7 84.17 99.9798 91.37C99.1798 94.71 98.3898 98.05 97.5998 101.4C97.5598 101.57 97.5098 101.75 97.4598 101.93C97.3398 102.36 97.1998 102.84 97.2898 103.09C97.5498 103.82 98.0998 104.5 98.3698 104.55C98.6198 104.6 99.3098 104.24 99.9798 103.58C100.11 103.45 100.18 103.03 100.23 102.69C100.26 102.48 100.29 102.28 100.34 102.09C101.03 99.21 101.71 96.28 102.36 93.44C103.8 87.18 105.29 80.71 107.03 74.42C111.13 59.52 109.19 46.44 101.07 34.44C95.3898 26.03 92.4798 17.91 92.1798 9.59998C92.1598 8.99998 91.9798 8.50998 91.6698 8.23998C91.4198 8.00998 91.0598 7.91998 90.6298 7.94998C90.2498 7.99998 89.2198 8.07998 89.3298 9.84998C89.3398 10.05 89.3498 10.26 89.3598 10.46C89.3698 10.75 89.3798 11.03 89.4098 11.3C90.0798 17.62 91.7598 23.52 94.4098 28.83C94.5698 29.16 94.6998 29.49 94.8298 29.85C94.8898 30.01 94.9498 30.18 95.0198 30.35L95.3698 31.22H94.4398C94.1398 31.22 93.8298 31.23 93.5298 31.24C91.3998 31.3 88.9698 31.37 88.0798 28.2C87.8598 28 87.0298 27.74 86.7198 27.82C86.3798 27.91 85.8498 28.56 85.6598 29.13C85.5998 29.32 85.7698 29.75 85.8598 29.99C85.9198 30.14 85.9698 30.27 85.9998 30.39L86.1198 30.92L85.6198 31.13C70.3398 37.47 54.8998 37.45 39.7198 31.08L39.1798 30.85L39.3598 30.3C39.3798 30.23 39.4098 30.18 39.4498 30.12C39.5498 29.95 39.5798 29.86 39.5898 29.82C39.5598 29.7 39.5198 29.58 39.4898 29.45C39.3698 29.03 39.1298 28.17 38.9398 27.94C38.3598 27.85 37.3498 28.21 37.0398 28.62C35.0998 31.25 34.5198 31.63 30.8298 30.98L29.9998 30.84L30.6498 29.49C30.8598 29.05 31.0698 28.62 31.2798 28.19C33.7798 23.04 35.3298 17.49 36.0098 11.23C36.0298 11.01 36.0398 10.79 36.0498 10.55C36.0598 10.36 36.0598 10.17 36.0698 9.98998C36.1098 9.47998 36.0698 8.77998 35.7198 8.37998C35.4998 8.11998 35.1698 7.98998 34.6998 7.95998C34.6598 7.95998 34.6198 7.95998 34.5798 7.95998ZM62.6798 70.86L62.1398 69.97C53.1998 55.17 40.1598 47.51 22.2498 46.54L21.2598 46.49L21.7198 45.62C22.2498 44.62 22.7498 43.62 23.2298 42.66C24.4598 40.2 25.6298 37.87 27.0998 35.72C27.8798 34.58 29.9098 34.37 31.5398 34.21L31.7798 34.19C37.4198 33.61 42.8598 35.05 46.9698 36.37C57.5198 39.76 68.0998 39.69 79.3298 36.15C83.9098 34.71 89.9698 33.23 96.2598 34.58C96.6698 34.67 98.0498 35.03 98.5698 35.94C99.8498 38.19 101.04 40.49 102.31 42.93C102.76 43.79 103.22 44.68 103.7 45.59L104.16 46.46L103.18 46.52C85.4298 47.56 72.3598 55.24 63.2298 69.99L62.6798 70.86ZM23.2898 45.33C40.7998 46.53 53.6998 54.1 62.6898 68.44C71.8598 54.14 84.7698 46.56 102.12 45.3C101.8 44.69 101.49 44.09 101.18 43.5C99.9198 41.07 98.7298 38.78 97.4598 36.55C97.2998 36.27 96.6698 35.95 95.9898 35.8C89.9898 34.51 84.1298 35.94 79.7098 37.34C68.2198 40.96 57.3898 41.03 46.5798 37.56C42.5898 36.28 37.3198 34.88 31.9098 35.43L31.6698 35.45C30.5198 35.57 28.5998 35.76 28.1498 36.42C26.7298 38.5 25.5798 40.79 24.3698 43.21C24.0098 43.91 23.6598 44.61 23.2898 45.33Z" fill="#C5BDB1"/>
<path d="M25.6802 72.38C26.1502 71.89 26.6702 70.87 27.3102 70.79C28.0702 70.7 29.3802 71.21 29.6602 71.82C30.3002 73.25 30.6702 74.88 30.7302 76.45C30.7502 77.15 29.8702 78.24 29.1702 78.48C28.6302 78.66 27.3502 77.97 27.0802 77.36C26.4202 75.93 26.1802 74.3 25.6802 72.38Z" fill="#C5BDB1"/>
<path d="M28.9602 79.15C28.0502 79.15 26.8202 78.37 26.4902 77.63C26.0102 76.57 25.7402 75.41 25.4602 74.18C25.3402 73.66 25.2102 73.12 25.0602 72.55L24.9702 72.21L25.2102 71.95C25.3202 71.83 25.4502 71.66 25.5902 71.48C26.0202 70.91 26.5002 70.26 27.2302 70.17C28.2402 70.04 29.8302 70.67 30.2302 71.57C30.9002 73.06 31.3002 74.79 31.3502 76.44C31.3902 77.47 30.2702 78.7799 29.3702 79.0899C29.2402 79.1299 29.1102 79.15 28.9602 79.15ZM26.3702 72.55C26.4902 73.02 26.5902 73.46 26.6902 73.9C26.9702 75.11 27.2202 76.16 27.6402 77.11C27.7902 77.44 28.6802 77.92 28.9702 77.89C29.4402 77.73 30.0902 76.85 30.0802 76.49C30.0302 75 29.6702 73.44 29.0702 72.1C28.9502 71.83 27.9802 71.36 27.3802 71.44C27.2002 71.46 26.8002 71.99 26.6002 72.25C26.5302 72.34 26.4502 72.45 26.3702 72.55Z" fill="#C5BDB1"/>
<path d="M99.7297 72.3901C99.2297 74.3101 98.9797 75.9301 98.3397 77.3701C98.0697 77.9801 96.7797 78.6701 96.2397 78.4801C95.5397 78.2401 94.6597 77.1401 94.6897 76.4501C94.7497 74.8801 95.1197 73.2501 95.7597 71.8201C96.0297 71.2101 97.3497 70.7001 98.1097 70.8001C98.7497 70.8801 99.2697 71.9101 99.7297 72.3901Z" fill="#C5BDB1"/>
<path d="M96.4299 79.15C96.2899 79.15 96.1499 79.13 96.0299 79.09C95.1299 78.77 94.0199 77.46 94.0499 76.43C94.1099 74.78 94.5099 73.05 95.1799 71.56C95.5899 70.65 97.1799 70.04 98.1899 70.17C98.9099 70.26 99.3899 70.91 99.8199 71.49C99.9599 71.67 100.08 71.84 100.19 71.96L100.43 72.22L100.34 72.56C100.19 73.13 100.06 73.68 99.9399 74.2C99.6599 75.42 99.3899 76.58 98.9099 77.64C98.5899 78.36 97.3399 79.15 96.4299 79.15ZM97.8899 71.42C97.2999 71.42 96.4399 71.83 96.3299 72.08C95.7299 73.42 95.3699 74.98 95.3099 76.47C95.2999 76.83 95.9499 77.71 96.4399 77.88C96.7099 77.92 97.6099 77.44 97.7499 77.11C98.1799 76.16 98.4199 75.11 98.6999 73.9C98.7999 73.47 98.9099 73.02 99.0199 72.55C98.9399 72.45 98.8699 72.35 98.7899 72.24C98.5999 71.98 98.1999 71.45 98.0199 71.43C97.9799 71.42 97.9399 71.42 97.8899 71.42Z" fill="#C5BDB1"/>
<path d="M33.9102 88.7699C33.3502 89.2899 32.7702 90.2599 32.0302 90.3999C31.3902 90.5199 30.1802 89.8799 29.9102 89.2699C29.2802 87.8199 28.8802 86.2099 28.7702 84.6399C28.7202 83.9899 29.5802 82.7999 30.1602 82.6999C30.8902 82.5799 32.1802 83.1399 32.4802 83.7699C33.1702 85.1799 33.3902 86.8199 33.9102 88.7699Z" fill="#C5BDB1"/>
<path d="M31.8602 91.0499C30.9302 91.0499 29.6702 90.3199 29.3302 89.5199C28.6702 87.9899 28.2602 86.3199 28.1402 84.6799C28.0802 83.7799 29.1002 82.2299 30.0602 82.0699C31.0102 81.9099 32.6002 82.5499 33.0502 83.4899C33.5602 84.5399 33.8202 85.6999 34.1102 86.9399C34.2302 87.4699 34.3602 88.0299 34.5102 88.6099L34.6102 88.9799L34.3302 89.2399C34.1902 89.3699 34.0402 89.5499 33.8802 89.7299C33.4102 90.2699 32.8802 90.8899 32.1402 91.0299C32.0602 91.0499 31.9602 91.0499 31.8602 91.0499ZM30.4002 83.3199C30.3502 83.3199 30.3102 83.3199 30.2702 83.3299C29.9802 83.4199 29.3902 84.2799 29.4102 84.5999C29.5102 86.0999 29.8902 87.6199 30.5002 89.0199C30.6402 89.3499 31.5702 89.8499 31.9102 89.7799C32.2202 89.7199 32.6202 89.2599 32.9302 88.8899C33.0202 88.7899 33.1102 88.6799 33.2002 88.5799C33.0802 88.1099 32.9802 87.6599 32.8802 87.2199C32.6002 86.0099 32.3602 84.9599 31.9202 84.0399C31.7702 83.7399 30.9302 83.3199 30.4002 83.3199Z" fill="#C5BDB1"/>
<path d="M91.5 88.7701C92.02 86.8101 92.24 85.1801 92.92 83.7601C93.22 83.1401 94.59 82.5101 95.23 82.7001C95.88 82.9001 96.65 84.1101 96.62 84.8501C96.58 86.2801 96.2 87.7801 95.59 89.0701C95.26 89.7501 94.08 90.4501 93.37 90.3801C92.66 90.3201 92.05 89.2901 91.5 88.7701Z" fill="#C5BDB1"/>
<path d="M93.46 91.0301C93.41 91.0301 93.35 91.0301 93.3 91.0201C92.55 90.9501 92 90.3001 91.52 89.7301C91.36 89.5401 91.2 89.3601 91.07 89.2301L90.79 88.9701L90.89 88.6001C91.05 88.0101 91.17 87.4601 91.3 86.9301C91.58 85.7001 91.85 84.5301 92.36 83.4801C92.8 82.5701 94.48 81.81 95.42 82.09C96.4 82.39 97.29 83.9101 97.26 84.8701C97.21 86.3801 96.82 87.9701 96.16 89.3501C95.74 90.2301 94.42 91.0301 93.46 91.0301ZM92.2 88.59C92.3 88.7 92.39 88.8101 92.48 88.9201C92.76 89.2501 93.18 89.7501 93.42 89.7701C93.87 89.8201 94.8 89.2501 95.01 88.8201C95.6 87.6001 95.94 86.1901 95.98 84.8501C95.99 84.3601 95.37 83.4301 95.04 83.3201C94.73 83.2301 93.67 83.6801 93.49 84.0401C93.05 84.9601 92.8 86.0101 92.52 87.2201C92.43 87.6601 92.32 88.11 92.2 88.59Z" fill="#C5BDB1"/>
<path d="M37.3998 101.22C36.5998 101.61 35.8098 102.27 34.9898 102.31C34.2398 102.34 33.0198 101.88 32.7898 101.31C32.1598 99.7901 31.7798 98.1101 31.6698 96.4701C31.6298 95.8401 32.4798 94.7301 33.1098 94.5801C33.7498 94.4201 35.0298 94.9901 35.2898 95.5701C35.9598 97.0801 36.2198 98.7601 36.6398 100.38C36.8998 100.65 37.1498 100.93 37.3998 101.22Z" fill="#C5BDB1"/>
<path d="M34.9298 102.94C34.0198 102.94 32.5698 102.42 32.1998 101.54C31.5498 99.97 31.1498 98.23 31.0298 96.5C30.9698 95.56 32.0098 94.18 32.9498 93.95C33.9098 93.72 35.4798 94.45 35.8598 95.3C36.3598 96.43 36.6398 97.65 36.9198 98.83C37.0198 99.24 37.1098 99.65 37.2098 100.06L38.4198 101.42L37.6698 101.79C37.4498 101.9 37.2298 102.03 36.9898 102.17C36.3798 102.53 35.7398 102.91 35.0098 102.94C34.9898 102.94 34.9598 102.94 34.9298 102.94ZM33.3798 95.17C33.3398 95.17 33.2998 95.17 33.2698 95.18C32.9298 95.26 32.2898 96.09 32.3098 96.41C32.4198 98 32.7898 99.6 33.3798 101.05C33.4898 101.28 34.3898 101.68 34.9698 101.66C35.3798 101.64 35.8498 101.36 36.3498 101.07C36.3698 101.06 36.3798 101.05 36.3998 101.04L36.0698 100.67L36.0298 100.52C35.9098 100.05 35.7998 99.58 35.6898 99.11C35.4198 97.94 35.1598 96.83 34.7098 95.81C34.6098 95.57 33.7998 95.17 33.3798 95.17Z" fill="#C5BDB1"/>
<path d="M94.0401 96.1901C93.5401 98.2201 93.3601 99.8001 92.7101 101.15C92.4001 101.79 91.0601 102.43 90.4101 102.25C89.7601 102.07 88.9501 100.87 88.9701 100.14C89.0101 98.7101 89.3901 97.2101 89.9901 95.9101C90.3101 95.2201 91.4801 94.4401 92.1401 94.5301C92.8901 94.6501 93.5101 95.6901 94.0401 96.1901Z" fill="#C5BDB1"/>
<path d="M90.65 102.91C90.51 102.91 90.37 102.89 90.25 102.86C89.33 102.61 88.31 101.15 88.34 100.12C88.38 98.6501 88.76 97.0501 89.42 95.6401C89.83 94.7601 91.24 93.7601 92.23 93.9101C93 94.0201 93.58 94.7001 94.04 95.2501C94.2 95.4401 94.34 95.6101 94.47 95.7301L94.74 95.9801L94.65 96.3401C94.5 96.9601 94.38 97.5301 94.26 98.0801C93.99 99.3401 93.76 100.42 93.28 101.42C92.9 102.22 91.61 102.91 90.65 102.91ZM92.01 95.1601C91.67 95.1601 90.79 95.6901 90.56 96.1801C89.97 97.4401 89.63 98.8501 89.6 100.15C89.59 100.63 90.24 101.54 90.58 101.63C90.91 101.72 91.96 101.24 92.14 100.86C92.56 100 92.77 98.9801 93.02 97.8001C93.12 97.3401 93.22 96.8701 93.34 96.3601C93.25 96.2601 93.16 96.1601 93.07 96.0501C92.76 95.6901 92.34 95.1901 92.05 95.1501C92.04 95.1601 92.03 95.1601 92.01 95.1601Z" fill="#C5BDB1"/>
<path d="M43.7299 19.16C43.1599 21.08 42.8699 22.7 42.1799 24.13C41.8899 24.73 40.5599 25.38 40.0299 25.17C39.3199 24.89 38.4599 23.77 38.5099 23.06C38.5999 21.55 39.0399 19.98 39.7199 18.63C40.0399 17.99 41.2899 17.46 42.0599 17.53C42.6699 17.59 43.2099 18.62 43.7299 19.16Z" fill="#C5BDB1"/>
<path d="M40.26 25.84C40.09 25.84 39.93 25.81 39.79 25.76C38.87 25.4 37.8 24.06 37.87 23.03C37.96 21.46 38.42 19.79 39.15 18.35C39.61 17.44 41.15 16.82 42.11 16.91C42.82 16.97 43.32 17.63 43.76 18.2C43.91 18.4 44.06 18.59 44.19 18.73L44.45 19L44.35 19.35C44.18 19.92 44.04 20.46 43.9 20.99C43.58 22.21 43.27 23.37 42.76 24.43C42.4 25.12 41.17 25.84 40.26 25.84ZM41.89 18.17C41.3 18.17 40.43 18.6 40.27 18.93C39.62 20.22 39.21 21.71 39.13 23.11C39.11 23.48 39.74 24.39 40.25 24.59C40.52 24.64 41.44 24.19 41.6 23.87C42.06 22.93 42.34 21.88 42.66 20.67C42.77 20.24 42.89 19.8 43.02 19.34C42.93 19.22 42.83 19.1 42.74 18.99C42.54 18.72 42.16 18.22 41.99 18.19C41.96 18.17 41.93 18.17 41.89 18.17Z" fill="#C5BDB1"/>
<path d="M81.6602 19.21C82.1602 18.66 82.6702 17.6101 83.2802 17.5401C84.0502 17.4501 85.3302 17.9501 85.6502 18.5801C86.3402 19.9301 86.7702 21.5001 86.8702 23.0101C86.9202 23.7201 86.0902 24.85 85.3902 25.14C84.8602 25.36 83.5002 24.7601 83.2202 24.1701C82.5302 22.7501 82.2302 21.12 81.6602 19.21Z" fill="#C5BDB1"/>
<path d="M85.12 25.82C84.2 25.82 83 25.14 82.66 24.45C82.14 23.4 81.83 22.24 81.51 21.01C81.37 20.49 81.23 19.95 81.06 19.39L80.96 19.05L81.2 18.79C81.33 18.65 81.46 18.46 81.61 18.25C82.03 17.66 82.51 16.99 83.22 16.91C84.21 16.8 85.76 17.39 86.23 18.29C86.96 19.71 87.42 21.37 87.52 22.97C87.59 24.01 86.55 25.35 85.65 25.73C85.49 25.79 85.31 25.82 85.12 25.82ZM82.37 19.35C82.5 19.81 82.62 20.26 82.73 20.68C83.05 21.89 83.33 22.94 83.8 23.88C83.94 24.16 84.87 24.61 85.18 24.54C85.67 24.33 86.28 23.43 86.26 23.04C86.17 21.62 85.76 20.13 85.11 18.86C84.94 18.53 83.96 18.1 83.38 18.16C83.21 18.2 82.85 18.7 82.66 18.98C82.55 19.11 82.46 19.23 82.37 19.35Z" fill="#C5BDB1"/>
<path d="M97.1698 62.55C97.1698 61.85 96.9198 61 97.2298 60.48C97.6998 59.69 98.4998 58.7 99.2698 58.59C99.8498 58.51 101.05 59.6 101.18 60.3C101.43 61.71 101.35 63.28 100.96 64.67C100.75 65.43 99.5998 66.45 98.9398 66.41C98.2798 66.37 97.5598 65.22 97.1198 64.42C96.8498 63.93 97.0698 63.18 97.0698 62.55C97.0998 62.55 97.1298 62.55 97.1698 62.55Z" fill="#C5BDB1"/>
<path d="M98.9701 67.05C98.9501 67.05 98.9201 67.05 98.9001 67.05C98.1401 67 97.4101 66.29 96.5601 64.73C96.2801 64.22 96.3401 63.63 96.3901 63.1C96.4101 62.9 96.4301 62.72 96.4301 62.55V61.92H96.4901C96.4301 61.34 96.3701 60.69 96.6801 60.16C97.0401 59.56 97.9901 58.14 99.1701 57.97C100.15 57.83 101.62 59.22 101.79 60.2C102.06 61.71 101.97 63.36 101.56 64.85C101.3 65.81 99.9801 67.05 98.9701 67.05ZM97.6501 63.19C97.6501 63.2 97.6501 63.21 97.6501 63.22C97.6201 63.54 97.5801 63.95 97.6701 64.11C98.5401 65.7 98.9701 65.78 98.9801 65.78C99.2801 65.81 100.2 65.04 100.35 64.5C100.71 63.21 100.78 61.72 100.55 60.42C100.48 60.02 99.6401 59.26 99.3201 59.23C98.9401 59.29 98.2901 59.94 97.7701 60.81C97.6601 60.99 97.7101 61.45 97.7501 61.81C97.7801 62.05 97.8001 62.3 97.8001 62.56V63.2L97.6501 63.19Z" fill="#C5BDB1"/>
<path d="M28.2399 62.79C28.2399 64.33 28.9299 66.38 26.4499 66.51C24.0099 66.64 24.3999 64.5 24.1699 63C24.0499 62.24 23.8399 61.32 24.1499 60.72C24.5999 59.85 25.4799 59.2 26.1799 58.46C26.8699 59.2 27.6999 59.86 28.1799 60.71C28.4799 61.25 28.2399 62.08 28.2399 62.79Z" fill="#C5BDB1"/>
<path d="M26.2401 67.15C23.8601 67.15 23.7201 65.13 23.6301 63.91C23.6101 63.62 23.5901 63.34 23.5501 63.09L23.5001 62.81C23.3701 62.03 23.2201 61.14 23.5901 60.42C23.9501 59.71 24.5301 59.17 25.0901 58.64C25.3101 58.43 25.5201 58.23 25.7201 58.02L26.1901 57.52L26.6501 58.02C26.8501 58.23 27.0601 58.44 27.2701 58.64C27.8101 59.17 28.3601 59.71 28.7401 60.39C29.0401 60.93 28.9801 61.59 28.9201 62.16C28.9001 62.38 28.8801 62.59 28.8801 62.77C28.8801 63.02 28.9001 63.29 28.9201 63.57C28.9901 64.51 29.0701 65.58 28.4101 66.34C27.9901 66.82 27.3601 67.08 26.5001 67.12C26.4001 67.15 26.3201 67.15 26.2401 67.15ZM26.1801 59.36C26.1101 59.43 26.0401 59.5 25.9601 59.57C25.4601 60.05 24.9801 60.5 24.7201 61.01C24.5401 61.35 24.6601 62.05 24.7501 62.61L24.8001 62.91C24.8501 63.21 24.8701 63.52 24.8901 63.83C25.0101 65.41 25.1601 65.96 26.4201 65.88C26.9201 65.85 27.2701 65.73 27.4501 65.53C27.7601 65.17 27.7101 64.42 27.6501 63.69C27.6301 63.39 27.6001 63.09 27.6001 62.79C27.6001 62.54 27.6301 62.29 27.6501 62.05C27.6901 61.66 27.7301 61.22 27.6201 61.03C27.3301 60.51 26.8601 60.05 26.3701 59.57C26.3101 59.49 26.2401 59.43 26.1801 59.36Z" fill="#C5BDB1"/>
<path d="M80.6099 11.31C80.6099 10.52 80.3999 9.83001 80.6599 9.44001C81.0999 8.76001 81.8099 7.87001 82.4499 7.83001C83.0999 7.79001 84.1799 8.55001 84.3999 9.20001C84.8199 10.42 84.9999 11.84 84.8099 13.11C84.6899 13.91 83.7499 15.1 83.0899 15.17C82.3899 15.24 81.3799 14.3 80.8999 13.55C80.4899 12.91 80.6699 11.92 80.6099 11.31Z" fill="#C5BDB1"/>
<path d="M83.01 15.8C81.96 15.8 80.8399 14.64 80.3499 13.88C79.9599 13.27 79.97 12.51 79.98 11.9C79.98 11.7 79.9899 11.51 79.9699 11.37V11.31C79.9699 11.08 79.9499 10.84 79.9299 10.62C79.8799 10.06 79.83 9.53998 80.12 9.08998C80.93 7.85998 81.67 7.23998 82.4 7.18998C83.32 7.12998 84.6799 8.06998 84.9899 8.97998C85.4599 10.37 85.6199 11.9 85.4199 13.19C85.2699 14.14 84.1899 15.68 83.1299 15.78C83.0999 15.79 83.06 15.8 83.01 15.8ZM81.2499 11.28C81.2699 11.48 81.26 11.69 81.26 11.91C81.25 12.38 81.2499 12.9 81.4299 13.19C81.9199 13.96 82.7399 14.54 83.0299 14.52C83.3199 14.48 84.0899 13.6 84.1799 13C84.3499 11.91 84.21 10.59 83.8 9.38998C83.66 8.98998 82.8099 8.42998 82.4899 8.44998C82.3399 8.45998 81.87 8.74998 81.19 9.77998C81.14 9.86998 81.1799 10.25 81.1999 10.5C81.2199 10.74 81.2499 11 81.2499 11.28Z" fill="#C5BDB1"/>
<path d="M44.8401 11.21C44.7101 12.11 44.8301 13.17 44.3801 13.86C43.9401 14.54 42.8901 15.21 42.1501 15.17C41.5701 15.14 40.7101 14.07 40.5901 13.35C40.4001 12.21 40.7101 10.98 40.8201 9.79996C40.9401 8.46996 41.6601 7.65996 43.0001 7.76996C44.3501 7.87996 44.8901 8.82996 44.8201 10.14C44.8001 10.49 44.7801 10.84 44.7701 11.19C44.7901 11.2 44.8201 11.2 44.8401 11.21Z" fill="#C5BDB1"/>
<path d="M42.2099 15.81C42.1799 15.81 42.1499 15.81 42.1199 15.81C41.1399 15.76 40.1199 14.36 39.9699 13.47C39.8199 12.57 39.9399 11.66 40.0599 10.78C40.1099 10.44 40.1499 10.1 40.1799 9.75996C40.3299 8.01996 41.4299 7.01996 43.0399 7.14996C44.6399 7.27996 45.5399 8.41996 45.4399 10.19L45.4199 10.67L45.5599 10.69L45.4699 11.31C45.4299 11.56 45.4199 11.82 45.3999 12.11C45.3599 12.84 45.3199 13.6 44.9099 14.22C44.3899 15 43.1999 15.81 42.2099 15.81ZM42.7199 8.38996C42.2899 8.38996 41.5599 8.54996 41.4399 9.85996C41.4099 10.22 41.3599 10.58 41.3099 10.95C41.1999 11.77 41.0899 12.55 41.2099 13.26C41.2899 13.75 41.9399 14.49 42.1899 14.55C42.1999 14.55 42.2099 14.55 42.2199 14.55C42.6899 14.55 43.4999 14.04 43.8499 13.52C44.0699 13.18 44.0999 12.63 44.1399 12.03C44.1499 11.94 44.1499 11.85 44.1599 11.75L44.0999 11.74L44.1799 10.11C44.2599 8.67996 43.5099 8.44996 42.9399 8.39996C42.8799 8.39996 42.8099 8.38996 42.7199 8.38996Z" fill="#C5BDB1"/>
</svg>
