<svg width="125" height="116" viewBox="0 0 125 116" fill="none" xmlns="http://www.w3.org/2000/svg">
<path d="M103.28 109.13C102.46 104.21 101.78 99.3801 100.82 94.6101C99.8302 89.6501 97.9502 84.9901 95.4402 80.5901C92.1502 74.8301 90.5002 68.6301 90.4702 62.0001C90.4602 59.8901 90.4702 57.7801 90.4702 55.5501C79.8102 58.1101 70.9902 55.4801 64.2502 46.5901C57.5702 55.3901 48.8002 58.0601 38.0902 55.5501C38.0902 56.5001 38.0702 57.3601 38.0902 58.2101C38.2502 63.5501 37.8002 68.8201 36.0002 73.8801C35.2002 76.1101 34.3502 78.3601 33.2002 80.4301C29.8902 86.3801 27.8502 92.7201 26.8202 99.4201C26.3802 102.3 26.0102 105.18 25.6002 108.07C25.5502 108.41 25.4702 108.74 25.3702 109.22C24.3502 109.1 23.3502 109.07 22.3902 108.86C21.3102 108.63 20.5802 107.87 20.5602 106.76C20.5102 104.66 20.4702 102.54 20.6702 100.44C21.4302 92.1001 24.0502 84.3501 28.1602 77.0501C30.8602 72.2401 32.0902 66.9901 32.0602 61.4701C32.0502 59.2801 32.0802 57.0901 31.9002 54.9101C31.7102 52.6801 30.6002 50.7901 28.9002 49.3601C24.9202 46.0101 23.3802 41.6001 23.3402 36.5901C23.2702 28.5901 23.3202 20.5901 23.3202 12.6001C23.3202 11.0001 24.0402 9.88009 25.2302 9.49009C27.1702 8.86009 28.6402 9.67009 29.1102 11.6801C29.2602 12.3101 29.3102 12.9701 29.3102 13.6201C29.3202 20.6201 29.4902 27.6201 29.2702 34.6101C29.0202 42.7101 34.4802 48.6201 41.7302 50.1901C48.7502 51.7101 56.0102 48.6401 59.5202 42.5001C60.8902 40.1101 61.2602 37.5001 61.2202 34.7901C61.1802 31.4501 61.1702 28.1001 61.2702 24.7601C61.3302 22.7401 62.2702 21.6001 63.6602 21.4201C65.6902 21.1601 67.0402 22.1701 67.1502 24.2601C67.2802 26.6801 67.2002 29.1001 67.2702 31.5201C67.3302 33.7401 67.2402 36.0101 67.6102 38.1801C68.7002 44.5601 73.7502 49.3101 80.1802 50.2901C85.5302 51.1101 90.3602 49.9901 94.4202 46.3001C97.5902 43.4201 99.2402 39.8101 99.2302 35.4801C99.2202 28.1701 99.2202 20.8701 99.2402 13.5601C99.2402 12.8001 99.3102 12.0201 99.5102 11.2901C99.8602 9.98009 100.94 9.23009 102.25 9.24009C103.56 9.25009 104.6 10.0201 104.96 11.3301C105.13 11.9501 105.22 12.6201 105.22 13.2601C105.24 20.7601 105.25 28.2601 105.23 35.7601C105.21 41.8801 102.87 46.9601 98.2102 50.9301C97.0202 51.9401 96.3802 53.1301 96.4602 54.7301C96.6402 58.3401 96.6602 61.9501 96.9002 65.5501C97.1802 69.7101 98.6602 73.5501 100.57 77.2101C103.86 83.5101 106.35 90.0901 107.39 97.1501C107.78 99.8001 108 102.49 108.11 105.18C108.23 108.01 107.2 108.99 104.36 109.1C104.03 109.14 103.69 109.13 103.28 109.13Z" fill="#C5BDB1"/>
<path d="M86.2 19.7801C86.2 22.7201 86.21 25.4401 86.2 28.1601C86.2 28.8101 86.19 29.4701 86.11 30.1101C85.91 31.7301 84.81 32.7501 83.3 32.7601C81.74 32.7801 80.45 31.7501 80.35 30.1301C80.2 27.9101 80.24 25.6801 80.21 23.4501C80.19 22.3401 80.21 21.2401 80.21 19.9501C79.59 20.2701 79.14 20.5301 78.67 20.7401C77.29 21.3601 76.01 21.0901 75.14 20.0001C74.13 18.7401 74.08 17.4601 75.13 16.2301C76.05 15.1501 77.07 14.1601 78.07 13.1501C79.1 12.1201 80.12 11.0701 81.21 10.1101C82.57 8.90009 83.9 8.85009 85.22 10.0901C87.26 12.0101 89.25 13.9901 91.17 16.0301C92.37 17.3101 92.37 18.7901 91.38 20.0001C90.41 21.1801 88.99 21.3701 87.44 20.5201C87.1 20.3401 86.79 20.1301 86.2 19.7801Z" fill="#C5BDB1"/>
<path d="M42.2999 19.89C41.6799 20.2 41.2499 20.42 40.8099 20.63C39.3699 21.33 38.1999 21.16 37.2599 20.11C36.2799 19.02 36.2199 17.78 37.1099 16.42C37.3399 16.07 37.6099 15.73 37.8999 15.44C39.5199 13.8 41.1299 12.16 42.7899 10.56C44.5999 8.80998 45.8699 8.74998 47.6699 10.45C49.5399 12.21 51.3599 14.04 53.0999 15.93C54.4899 17.45 54.4599 18.68 53.2899 20.12C52.5299 21.05 51.5599 21.21 50.4899 20.86C49.7999 20.64 49.1599 20.28 48.2999 19.89C48.2999 20.3 48.2999 20.65 48.2999 21C48.2899 23.88 48.3099 26.76 48.2599 29.64C48.2399 31.02 47.5999 32.1 46.2799 32.61C45.1299 33.05 43.9599 32.79 43.2499 31.86C42.7199 31.15 42.3699 30.14 42.3399 29.25C42.2299 26.57 42.3099 23.88 42.3099 21.19C42.2999 20.82 42.2999 20.45 42.2999 19.89Z" fill="#C5BDB1"/>
<path d="M45.31 38.3201C46.94 38.3401 48.31 39.7401 48.28 41.3601C48.25 42.9001 46.84 44.2601 45.27 44.2701C43.63 44.2701 42.28 42.8701 42.33 41.2101C42.38 39.5601 43.68 38.3001 45.31 38.3201Z" fill="#C5BDB1"/>
<path d="M86.16 41.2301C86.18 42.9101 84.99 44.2001 83.35 44.2601C81.76 44.3201 80.28 42.9101 80.26 41.3201C80.24 39.7101 81.62 38.3201 83.26 38.3101C84.91 38.3101 86.14 39.5501 86.16 41.2301Z" fill="#C5BDB1"/>
<path d="M64.3098 86.08C62.5998 86.09 61.2998 84.81 61.2998 83.14C61.2998 81.55 62.6298 80.19 64.2198 80.15C65.8398 80.11 67.2098 81.49 67.2098 83.15C67.1998 84.81 65.9498 86.07 64.3098 86.08Z" fill="#C5BDB1"/>
</svg>
