<svg width="125" height="116" viewBox="0 0 125 116" fill="none" xmlns="http://www.w3.org/2000/svg">
<path d="M32.6699 56.3101C37.2299 59.6601 42.1599 61.8401 47.4099 63.3401C47.7399 63.4301 48.3599 63.3201 48.5199 63.0801C49.3599 61.8001 50.6099 61.1101 51.8999 61.7501C52.9299 62.2601 53.5999 63.4901 54.2599 64.6301C62.1399 66.2201 70.2099 66.2001 78.2599 64.9301C78.5999 64.1101 78.7799 63.2801 79.2299 62.6501C80.2099 61.2801 82.3499 61.0501 83.3199 62.4101C84.2399 63.6901 85.1199 63.4201 86.1999 63.0601C91.0099 61.4801 95.6099 59.4701 99.6999 56.3901C98.4399 52.5901 97.0499 48.8901 95.9799 45.0901C92.9699 34.3901 94.7499 24.1101 99.0799 14.1201C99.7999 12.4701 101.41 11.8501 103.01 12.4601C104.41 13.0001 104.85 14.7001 104.32 16.5001C103 20.8901 101.46 25.2401 100.62 29.7301C99.3299 36.6201 101.18 43.1801 103.38 49.7201C105.84 57.0501 108.28 64.4401 109.9 71.9701C112.01 81.7201 110.65 91.4301 107.66 100.9C107.03 102.88 106.44 104.87 105.86 106.87C105.41 108.41 104.38 109.16 102.82 109.22C102.19 109.24 101.56 109.24 100.93 109.24C77.8099 109.24 54.6999 109.24 31.5799 109.24C27.5399 109.24 27.2099 109.12 26.2099 105.23C24.7299 99.5101 23.0899 93.7901 22.1699 87.9701C20.7799 79.1601 22.1999 70.4901 24.9299 62.0501C26.2999 57.8001 27.6299 53.5201 29.2499 49.3601C33.3899 38.7801 33.1499 28.3101 28.8099 17.8801C28.5899 17.3601 28.3499 16.8401 28.1499 16.3101C27.5399 14.6701 28.1399 12.9801 29.4899 12.4601C31.0899 11.8501 32.8099 12.4401 33.3899 14.1301C34.7799 18.2301 36.2799 22.3401 37.2099 26.5601C39.0299 34.8101 37.7299 42.8601 34.8099 50.6901C34.1199 52.5201 33.4199 54.3401 32.6699 56.3101ZM27.6899 74.4401C41.7799 74.6401 54.8399 77.1801 66.3499 85.5501C71.5899 81.2501 77.8399 78.8101 84.3799 77.0201C90.9599 75.2101 97.6799 74.4201 104.84 74.5301C103.77 70.2201 102.78 66.2201 101.84 62.4601C77.9599 74.8001 54.4599 74.8101 30.6399 62.4301C29.6899 66.2701 28.7099 70.2701 27.6899 74.4401ZM27.4199 80.3201C27.4199 81.1801 27.4199 81.8101 27.4199 82.4401C27.4799 89.0601 29.0999 95.3801 31.0199 101.67C31.4499 103.09 32.0399 103.53 33.4799 103.52C42.8099 103.46 52.1499 103.49 61.4799 103.48C62.0799 103.48 62.6799 103.4 63.3999 103.35C63.3999 99.9101 63.2399 96.6301 63.4599 93.3701C63.6099 91.2301 62.6999 89.9901 61.0999 88.8701C57.2399 86.1601 52.9399 84.4201 48.4699 83.0601C41.6799 81.0001 34.7499 79.9801 27.4199 80.3201ZM69.0999 103.17C69.3599 103.33 69.4099 103.38 69.4599 103.38C79.6099 103.41 89.7599 103.46 99.9099 103.42C100.37 103.42 101.06 102.73 101.23 102.23C101.96 100.09 102.59 97.9101 103.17 95.7201C104.48 90.7201 105.26 85.6501 105.04 80.5201C104.78 80.3901 104.67 80.3001 104.56 80.2901C104.06 80.2601 103.55 80.2501 103.05 80.2401C95.4699 80.1401 88.0799 81.3501 81.0499 84.1001C77.2899 85.5701 73.8299 87.8401 70.2799 89.8301C69.7499 90.1301 69.1599 90.8701 69.1499 91.4201C69.0599 95.3901 69.0999 99.3401 69.0999 103.17Z" fill="#C5BDB1"/>
<path d="M55.1902 38.77C54.5902 38.32 53.5002 37.89 53.1802 37.13C52.8302 36.28 52.7702 34.65 53.2902 34.21C55.2802 32.54 57.4702 31.04 59.7802 29.83C61.0602 29.16 62.3702 29.95 63.0302 31.33C63.6602 32.66 63.2802 33.86 62.1602 34.69C60.4502 35.95 58.6402 37.1 56.8502 38.25C56.5002 38.48 56.0302 38.51 55.1902 38.77Z" fill="#C5BDB1"/>
<path d="M79.9298 36.25C79.4898 36.8 79.0298 37.85 78.2698 38.19C77.4798 38.54 76.2298 38.5 75.4598 38.1C73.6898 37.17 71.9498 36.08 70.4998 34.74C69.7898 34.08 69.3798 32.66 69.4698 31.65C69.5998 30.24 70.8998 29.45 72.2698 29.75C75.2698 30.39 77.6498 32.13 79.5098 34.55C79.7498 34.85 79.7298 35.37 79.9298 36.25Z" fill="#C5BDB1"/>
<path d="M53.9298 49.53C53.9298 50.54 53.9898 51.55 53.9198 52.56C53.8098 54.18 52.6198 55.26 51.0798 55.25C49.5398 55.24 48.3298 54.16 48.2698 52.53C48.1998 50.45 48.1698 48.36 48.2898 46.28C48.3798 44.68 49.4198 43.78 51.0198 43.67C52.5498 43.57 53.7998 44.7 53.9198 46.3C53.9898 47.38 53.9298 48.45 53.9298 49.53Z" fill="#C5BDB1"/>
<path d="M78.5699 49.4399C78.5699 48.4299 78.5199 47.4199 78.5799 46.4099C78.6899 44.7999 79.8799 43.6899 81.3999 43.6899C82.9299 43.6899 84.1599 44.7999 84.2199 46.4099C84.2999 48.4899 84.3099 50.5799 84.2099 52.6499C84.1399 54.2499 82.8599 55.3199 81.2999 55.2499C79.6599 55.1699 78.7499 54.2199 78.5799 52.6499C78.4799 51.5999 78.5699 50.5099 78.5699 49.4399Z" fill="#C5BDB1"/>
<path d="M63.4102 46.25C63.4402 44.68 64.7802 43.4 66.3402 43.46C67.9102 43.51 69.1602 44.87 69.0902 46.44C69.0202 47.93 67.7502 49.14 66.2502 49.14C64.6802 49.14 63.3802 47.82 63.4102 46.25Z" fill="#C5BDB1"/>
</svg>
