<svg width="125" height="116" viewBox="0 0 125 116" fill="none" xmlns="http://www.w3.org/2000/svg">
<path d="M25.8699 60.2199C25.8699 47.5399 26.0099 34.8499 25.8099 22.1699C25.7099 16.0799 29.8999 13.4399 34.4599 13.4799C54.9399 13.6399 75.4099 13.5499 95.8899 13.5499C101.06 13.5499 103.99 16.4099 104 21.5799C104.02 47.4799 104 73.3799 104.02 99.2799C104.02 101.44 103.53 103.28 101.49 104.41C99.4599 105.53 97.6399 104.98 95.8099 103.82C86.7099 98.0599 77.5699 92.3899 68.4999 86.5899C66.0399 85.0199 63.8799 84.9899 61.4099 86.5699C52.4999 92.2699 43.5099 97.8699 34.5499 103.5C33.9999 103.85 33.4499 104.22 32.8599 104.5C29.7199 106.03 26.2199 104.06 25.9099 100.58C25.8499 99.8699 25.8599 99.1499 25.8599 98.4399C25.8699 85.7099 25.8699 72.9699 25.8699 60.2199ZM47.7999 72.5099C47.8199 74.5099 49.4299 75.3899 51.2199 74.4299C55.2499 72.2599 59.2599 70.0599 63.2199 67.7799C64.4599 67.0699 65.4699 67.0899 66.6999 67.7899C70.5599 70.0099 74.4499 72.1899 78.3999 74.2399C79.1699 74.6399 80.6099 74.8199 81.1199 74.3799C81.7299 73.8499 82.0099 72.4899 81.8599 71.5899C81.1399 67.2599 80.2599 62.9499 79.3699 58.6499C79.0899 57.2899 79.3399 56.2799 80.3999 55.3099C83.6199 52.3899 86.8099 49.4499 89.8999 46.3899C90.6099 45.6899 91.3899 44.3699 91.1799 43.5999C90.9699 42.8499 89.5899 42.0999 88.6199 41.9499C84.3899 41.2999 80.1399 40.8099 75.8799 40.3799C74.3499 40.2299 73.3799 39.6699 72.7399 38.2299C70.9499 34.2199 69.1099 30.2299 67.1399 26.2999C66.7299 25.4699 65.6699 24.4499 64.9299 24.4599C64.1699 24.4699 63.1399 25.4999 62.7299 26.3299C60.7599 30.2599 58.9299 34.2499 57.1299 38.2599C56.5199 39.6199 55.6099 40.2199 54.1499 40.3699C49.8399 40.8199 45.5299 41.3799 41.2299 41.9099C40.0899 42.0499 38.7099 42.2399 38.6499 43.5899C38.6099 44.4799 39.2199 45.5999 39.8899 46.2799C42.0599 48.4799 44.4299 50.4799 46.6499 52.6399C51.7899 57.6599 51.0399 55.2499 49.7299 62.4999C49.1099 65.8999 48.4199 69.2799 47.7999 72.5099Z" fill="#887966"/>
</svg>
