<svg width="125" height="116" viewBox="0 0 125 116" fill="none" xmlns="http://www.w3.org/2000/svg">
<path fill-rule="evenodd" clip-rule="evenodd" d="M111.17 60.18C111.17 87.33 89.1601 109.33 62.0201 109.33C34.8701 109.33 12.8701 87.32 12.8701 60.18C12.8701 33.03 34.8801 11.03 62.0201 11.03C89.1701 11.02 111.17 33.03 111.17 60.18ZM47.1201 45.28C48.5601 43.84 50.8901 43.84 52.3301 45.28L62.0101 54.96L71.6901 45.28C73.1301 43.84 75.4601 43.84 76.9001 45.28C78.3401 46.72 78.3401 49.05 76.9001 50.49L67.2201 60.17L76.9001 69.85C78.3401 71.29 78.3401 73.62 76.9001 75.06C75.4601 76.5 73.1301 76.5 71.6901 75.06L62.0101 65.38L52.3301 75.06C50.8901 76.5 48.5601 76.5 47.1201 75.06C45.6801 73.62 45.6801 71.29 47.1201 69.85L56.8001 60.17L47.1201 50.49C45.6801 49.06 45.6801 46.72 47.1201 45.28Z" fill="#D5D5D4"/>
</svg>
