<svg width="125" height="116" viewBox="0 0 125 116" fill="none" xmlns="http://www.w3.org/2000/svg">
<path d="M62.02 111.54C60.57 111.54 59.18 110.95 58.16 109.91C56.66 108.37 55.14 106.81 53.66 105.31C35.83 87.11 18.98 69.93 18.98 48.06C18.98 36.31 23.44 25.25 31.53 16.92C39.67 8.54995 50.5 3.94995 62.02 3.94995C73.54 3.94995 84.37 8.54995 92.5 16.92C100.59 25.25 105.05 36.3 105.05 48.06C105.05 69.93 88.2 87.12 70.37 105.31C68.9 106.81 67.37 108.37 65.87 109.91C64.86 110.95 63.47 111.54 62.02 111.54ZM62.02 14.7C44.22 14.7 29.74 29.66 29.74 48.0499C29.74 65.5299 45.09 81.19 61.34 97.76C61.56 97.99 61.79 98.22 62.01 98.45C62.24 98.22 62.46 97.99 62.68 97.76C78.95 81.2 94.3 65.54 94.3 48.06C94.3 29.67 79.82 14.7 62.02 14.7Z" fill="#B8AB94"/>
<path d="M62.0199 63.12C53.1199 63.12 45.8799 55.88 45.8799 46.98C45.8799 38.08 53.1199 30.84 62.0199 30.84C70.9199 30.84 78.1599 38.08 78.1599 46.98C78.1599 55.88 70.9199 63.12 62.0199 63.12ZM62.0199 41.6C59.0499 41.6 56.6399 44.01 56.6399 46.98C56.6399 49.95 59.0499 52.36 62.0199 52.36C64.9899 52.36 67.3999 49.95 67.3999 46.98C67.3999 44.01 64.9899 41.6 62.0199 41.6Z" fill="#B8AB94"/>
</svg>
