<svg width="328" height="63" viewBox="0 0 328 63" fill="none" xmlns="http://www.w3.org/2000/svg">
<path d="M32.0002 0.51001V7.75001H8.75016V47.41H0.910156V0.51001H32.0002Z" fill="#E5E5E5"/>
<path d="M59.2999 15.7601C61.7799 17.2101 63.7099 19.2601 65.0999 21.8901C66.4799 24.5301 67.1799 27.5201 67.1799 30.8701C67.1799 34.2201 66.4899 37.2101 65.0999 39.8501C63.7099 42.4901 61.7799 44.5301 59.2999 45.9801C56.8199 47.4301 53.9699 48.1601 50.7599 48.1601C48.4799 48.1601 46.3499 47.7801 44.3599 47.0201C42.3699 46.2601 40.7299 45.1901 39.4399 43.8001V62.6901H31.9399V14.3201H38.6399L38.7099 18.7401C39.9999 17.1301 41.6999 15.8701 43.7999 14.9501C45.8999 14.0301 48.2199 13.5801 50.7699 13.5801C53.9699 13.5801 56.8199 14.3101 59.2999 15.7601ZM56.8499 38.4001C58.7299 36.4601 59.6599 33.9401 59.6599 30.8601C59.6599 27.7801 58.7199 25.2701 56.8499 23.3201C54.9699 21.3801 52.5399 20.4101 49.5499 20.4101C46.5999 20.4101 44.1799 21.3801 42.2799 23.3201C40.3799 25.2601 39.4299 27.7801 39.4299 30.8601C39.4299 33.9401 40.3799 36.4501 42.2799 38.4001C44.1799 40.3401 46.5999 41.3201 49.5499 41.3201C52.5399 41.3201 54.9799 40.3501 56.8499 38.4001Z" fill="#E5E5E5"/>
<path d="M80.3702 45.9101C77.6902 44.4101 75.6202 42.3601 74.1702 39.7501C72.7202 37.1401 71.9902 34.1801 71.9902 30.8701C71.9902 27.5701 72.7202 24.6101 74.1702 21.9901C75.6202 19.3801 77.6902 17.3201 80.3702 15.8301C83.0502 14.3301 86.1502 13.5901 89.6802 13.5901C93.1602 13.5901 96.2502 14.3401 98.9302 15.8301C101.61 17.3301 103.68 19.3801 105.13 21.9901C106.58 24.6001 107.31 27.5601 107.31 30.8701C107.31 34.1801 106.58 37.1301 105.13 39.7501C103.68 42.3601 101.61 44.4201 98.9302 45.9101C96.2502 47.4101 93.1702 48.1601 89.6802 48.1601C86.1502 48.1501 83.0502 47.4001 80.3702 45.9101ZM95.0102 39.9101C96.5502 38.9701 97.7302 37.7101 98.5602 36.1201C99.3902 34.5401 99.8002 32.7801 99.8002 30.8601C99.8002 28.9401 99.3902 27.1901 98.5602 25.6001C97.7302 24.0201 96.5502 22.7501 95.0102 21.8101C93.4702 20.8701 91.6902 20.4001 89.6802 20.4001C87.6702 20.4001 85.8902 20.8701 84.3502 21.8101C82.8102 22.7501 81.6102 24.0101 80.7702 25.6001C79.9202 27.1901 79.5002 28.9401 79.5002 30.8601C79.5002 32.7801 79.9202 34.5301 80.7702 36.1201C81.6202 37.7101 82.8102 38.9701 84.3502 39.9101C85.8902 40.8501 87.6702 41.3201 89.6802 41.3201C91.6902 41.3201 93.4702 40.8501 95.0102 39.9101Z" fill="#E5E5E5"/>
<path d="M120.5 46.0101C117.82 44.5801 115.75 42.5601 114.3 39.9501C112.85 37.3401 112.12 34.3101 112.12 30.8701C112.12 27.4801 112.86 24.4701 114.33 21.8601C115.8 19.2501 117.87 17.2201 120.53 15.7601C123.19 14.3101 126.26 13.5801 129.74 13.5801C134.56 13.5801 138.74 15.2801 142.27 18.6701L137.71 23.5601C136.73 22.5801 135.54 21.8101 134.16 21.2501C132.77 20.6901 131.35 20.4101 129.87 20.4101C126.83 20.4101 124.36 21.3801 122.47 23.3201C120.57 25.2601 119.62 27.7801 119.62 30.8601C119.62 33.9901 120.57 36.5101 122.47 38.4301C124.37 40.3501 126.84 41.3101 129.87 41.3101C131.48 41.3101 133 41.0201 134.43 40.4401C135.86 39.8601 137.06 39.0101 138.05 37.8901L142.67 42.9101C140.84 44.7001 138.87 46.0201 136.77 46.8601C134.67 47.7101 132.35 48.1301 129.8 48.1301C126.29 48.1501 123.18 47.4401 120.5 46.0101Z" fill="#E5E5E5"/>
<path d="M156.14 46.0101C153.46 44.5801 151.39 42.5601 149.94 39.9501C148.49 37.3401 147.76 34.3101 147.76 30.8701C147.76 27.4801 148.5 24.4701 149.97 21.8601C151.44 19.2501 153.51 17.2201 156.17 15.7601C158.83 14.3101 161.9 13.5801 165.38 13.5801C170.2 13.5801 174.38 15.2801 177.91 18.6701L173.35 23.5601C172.37 22.5801 171.18 21.8101 169.8 21.2501C168.42 20.6901 166.99 20.4101 165.51 20.4101C162.47 20.4101 160 21.3801 158.11 23.3201C156.21 25.2601 155.26 27.7801 155.26 30.8601C155.26 33.9901 156.21 36.5101 158.11 38.4301C160.01 40.3501 162.48 41.3101 165.51 41.3101C167.12 41.3101 168.63 41.0201 170.06 40.4401C171.49 39.8601 172.7 39.0101 173.68 37.8901L178.3 42.9101C176.47 44.7001 174.5 46.0201 172.4 46.8601C170.3 47.7001 167.98 48.1301 165.43 48.1301C161.92 48.1501 158.82 47.4401 156.14 46.0101Z" fill="#E5E5E5"/>
<path d="M215.3 14.3201H222.67V47.4901H215.43V25.3701L204.11 39.6401H202.9L191.58 25.3701V47.4801H184.34V14.3201H191.84L203.77 29.0601L215.3 14.3201Z" fill="#E5E5E5"/>
<path d="M264.88 14.3201V47.4201H258.18L258.11 43.0001C256.81 44.6101 255.12 45.8701 253.02 46.7901C250.92 47.7101 248.6 48.1601 246.05 48.1601C242.83 48.1601 239.99 47.4301 237.51 45.9801C235.03 44.5301 233.1 42.4901 231.72 39.8501C230.33 37.2201 229.64 34.2201 229.64 30.8701C229.64 27.5201 230.33 24.5301 231.72 21.8901C233.1 19.2601 235.04 17.2101 237.51 15.7601C239.99 14.3101 242.84 13.5801 246.05 13.5801C248.6 13.5801 250.92 14.0401 253.02 14.9501C255.12 15.8701 256.82 17.1301 258.11 18.7401L258.18 14.3201H264.88ZM254.56 38.4001C256.44 36.4601 257.37 33.9401 257.37 30.8601C257.37 27.7801 256.43 25.2701 254.56 23.3201C252.68 21.3801 250.25 20.4101 247.26 20.4101C244.27 20.4101 241.83 21.3801 239.96 23.3201C238.08 25.2601 237.15 27.7801 237.15 30.8601C237.15 33.9401 238.09 36.4501 239.96 38.4001C241.84 40.3401 244.27 41.3201 247.26 41.3201C250.25 41.3201 252.68 40.3501 254.56 38.4001Z" fill="#E5E5E5"/>
<path d="M297.71 14.3201H305.21V47.4201H297.71V33.6201H281.5V47.4201H274V14.3201H281.5V26.8501H297.71V14.3201Z" fill="#E5E5E5"/>
<path d="M322.18 36.0599C325.047 36.0599 327.37 33.7363 327.37 30.8699C327.37 28.0036 325.047 25.6799 322.18 25.6799C319.314 25.6799 316.99 28.0036 316.99 30.8699C316.99 33.7363 319.314 36.0599 322.18 36.0599Z" fill="#E5E5E5"/>
</svg>
