<svg width="125" height="116" viewBox="0 0 125 116" fill="none" xmlns="http://www.w3.org/2000/svg">
<path d="M62.725 10.315C88.976 10.315 110.22 31.5691 110.22 57.82C110.22 84.1413 88.9458 105.335 62.524 105.315C36.3736 105.295 15.1999 83.9503 15.22 57.6189C15.2301 31.549 36.5545 10.315 62.725 10.315ZM62.1922 72.9211C65.8619 75.6256 69.4914 78.31 73.1208 80.9743C75.9963 83.0857 77.5748 82.4925 78.3187 79.044C79.8972 71.6844 81.4757 64.3249 83.0542 56.9755C84.0495 52.3306 85.1253 47.6957 85.9497 43.0306C86.1508 41.9046 85.8592 40.3161 85.1454 39.5218C84.6628 38.9789 82.9536 39.18 81.9583 39.5218C78.8617 40.5573 75.8455 41.8241 72.7991 43.0005C60.8852 47.5851 48.9611 52.1496 37.0874 56.8146C36.1222 57.1967 35.4184 58.2523 34.594 58.9963C35.4587 59.5895 36.2529 60.4139 37.2181 60.7457C40.2946 61.8316 43.4616 62.6861 46.5482 63.7519C47.7245 64.154 48.6093 63.9529 49.6247 63.3095C57.9092 58.0412 66.2238 52.8131 74.5485 47.6052C75.2724 47.1528 76.1471 46.9416 76.9514 46.6199C77.1123 46.8813 77.2731 47.1326 77.444 47.3941C76.9816 47.6957 76.4789 47.947 76.0767 48.309C69.4109 54.3112 62.7552 60.3134 56.1095 66.3357C55.6269 66.7781 54.9533 67.321 54.903 67.874C54.531 71.6643 54.2998 75.4647 53.9781 79.788C57.5372 78.0587 59.2966 74.962 62.1922 72.9211Z" fill="#9C9688"/>
</svg>
