<svg width="125" height="116" viewBox="0 0 125 116" fill="none" xmlns="http://www.w3.org/2000/svg">
<path d="M75.5527 33.3186H49.8873C43.4574 33.3186 38.2236 38.5524 38.2236 44.9823V70.6477C38.2236 77.0776 43.4574 82.3114 49.8873 82.3114H75.5527C81.9826 82.3114 87.2164 77.0776 87.2164 70.6477V44.9823C87.2164 38.5524 81.9826 33.3186 75.5527 33.3186ZM62.72 73.0668C54.3117 73.0668 47.4682 66.2233 47.4682 57.815C47.4682 49.4067 54.3117 42.5632 62.72 42.5632C71.1283 42.5632 77.9718 49.4067 77.9718 57.815C77.9718 66.2233 71.1283 73.0668 62.72 73.0668ZM78.3855 45.6747C76.416 45.6747 74.8243 44.083 74.8243 42.1046C74.8243 40.1351 76.416 38.5434 78.3855 38.5434C80.3549 38.5434 81.9556 40.1351 81.9556 42.1046C81.9556 44.083 80.3639 45.6747 78.3855 45.6747ZM62.72 47.7521C57.1714 47.7521 52.666 52.2664 52.666 57.806C52.666 63.3456 57.1804 67.86 62.72 67.86C68.2596 67.86 72.774 63.3456 72.774 57.806C72.774 52.2664 68.2686 47.7521 62.72 47.7521ZM62.72 10.315C36.488 10.315 15.22 31.583 15.22 57.815C15.22 84.047 36.488 105.315 62.72 105.315C88.952 105.315 110.22 84.047 110.22 57.815C110.22 31.583 88.952 10.315 62.72 10.315ZM92.4142 70.6477C92.4142 79.9373 84.8513 87.5003 75.5617 87.5003H49.8873C40.5977 87.5003 33.0347 79.9373 33.0347 70.6477V44.9823C33.0347 35.6927 40.5977 28.1298 49.8873 28.1298H75.5527C84.8423 28.1298 92.4053 35.6927 92.4053 44.9823V70.6477H92.4142Z" fill="#9C9688"/>
</svg>
