<svg width="125" height="116" viewBox="0 0 125 116" fill="none" xmlns="http://www.w3.org/2000/svg">
<path d="M62.7856 10.315C89.0023 10.3251 110.24 31.6191 110.22 57.8806C110.21 84.0917 88.9114 105.335 62.6544 105.315C36.4377 105.305 15.1998 84.0109 15.22 57.7494C15.2301 31.5383 36.5286 10.3049 62.7856 10.315ZM50.4347 54.7103C51.1821 54.3367 51.8284 54.0136 52.4848 53.7006C53.2018 53.3472 53.939 53.014 54.6359 52.6303C56.3224 51.7014 56.9586 50.3182 56.1709 48.6118C54.0703 44.0582 53.0099 39.3027 52.8585 34.2947C52.7878 32.0633 51.6466 31.1243 49.3946 31.1041C46.1225 31.0839 42.8404 31.0839 39.5684 31.1041C37.084 31.1243 35.8823 32.2653 36.054 34.7793C36.2761 38.0305 36.5286 41.322 37.1547 44.5126C41.5881 67.1292 62.715 84.4956 85.6899 84.5158C88.3156 84.5158 89.4163 83.4556 89.4264 80.8406C89.4466 77.8115 89.4365 74.7825 89.4264 71.7535C89.4264 68.674 88.6084 67.7249 85.5485 67.6139C80.9232 67.4624 76.5302 66.4224 72.319 64.5041C70.1982 63.5348 68.845 64.0699 67.7644 66.1599C67.108 67.4422 66.4717 68.7346 65.8052 70.0775C59.2308 66.2508 54.2016 61.2125 50.4347 54.7103Z" fill="#9C9688"/>
</svg>
