<svg width="392" height="116" viewBox="0 0 392 116" fill="none" xmlns="http://www.w3.org/2000/svg">
<path d="M126.27 77.52H129.75V78.08H126.87V82.75H126.27V77.52Z" fill="#857B71"/>
<path d="M135.13 77.77C135.53 78 135.84 78.32 136.06 78.73C136.28 79.14 136.39 79.61 136.39 80.13C136.39 80.65 136.28 81.12 136.06 81.53C135.84 81.94 135.53 82.26 135.13 82.49C134.73 82.72 134.28 82.83 133.77 82.83C133.31 82.83 132.9 82.73 132.52 82.54C132.15 82.35 131.86 82.09 131.65 81.76V85.25H131.05V77.51H131.6L131.61 78.55C131.81 78.2 132.1 77.93 132.48 77.72C132.86 77.52 133.29 77.41 133.77 77.41C134.28 77.43 134.73 77.54 135.13 77.77ZM134.79 82.02C135.1 81.84 135.35 81.59 135.53 81.26C135.71 80.94 135.79 80.56 135.79 80.14C135.79 79.72 135.7 79.34 135.53 79.02C135.35 78.7 135.11 78.44 134.79 78.26C134.48 78.08 134.12 77.99 133.72 77.99C133.32 77.99 132.96 78.08 132.65 78.26C132.34 78.44 132.1 78.69 131.92 79.02C131.74 79.34 131.66 79.72 131.66 80.14C131.66 80.56 131.75 80.94 131.92 81.26C132.1 81.58 132.34 81.84 132.65 82.02C132.96 82.2 133.32 82.29 133.72 82.29C134.12 82.28 134.48 82.19 134.79 82.02Z" fill="#857B71"/>
<path d="M141.42 77.52H142.08L138.72 85.26H138.05L139.16 82.71L137 77.52H137.66L138.85 80.42L139.51 82.02L140.19 80.42L141.42 77.52Z" fill="#857B71"/>
<path d="M143.28 77.52H147.87V82.75H147.27V78.08H143.88V82.75H143.28V77.52Z" fill="#857B71"/>
<path d="M149.57 77.52H154.16V82.75H153.56V78.08H150.17V82.75H149.57V77.52Z" fill="#857B71"/>
<path d="M160.85 77.5201V82.7501H160.29V81.7101C160.09 82.0601 159.79 82.3301 159.41 82.5401C159.03 82.7401 158.6 82.8501 158.12 82.8501C157.61 82.8501 157.16 82.7401 156.77 82.5101C156.37 82.2801 156.07 81.9601 155.84 81.5501C155.62 81.1401 155.51 80.6701 155.51 80.1501C155.51 79.6301 155.62 79.1601 155.84 78.7501C156.06 78.3401 156.37 78.0201 156.77 77.7901C157.17 77.5601 157.62 77.4501 158.12 77.4501C158.6 77.4501 159.03 77.5501 159.41 77.7601C159.79 77.9601 160.08 78.2401 160.29 78.6001V77.5501H160.85V77.5201ZM159.24 82.0201C159.55 81.8401 159.8 81.5901 159.98 81.2601C160.16 80.9401 160.24 80.5601 160.24 80.1401C160.24 79.7201 160.15 79.3401 159.98 79.0201C159.8 78.7001 159.56 78.4401 159.24 78.2601C158.93 78.0801 158.57 77.9901 158.17 77.9901C157.77 77.9901 157.41 78.0801 157.1 78.2601C156.79 78.4401 156.55 78.6901 156.37 79.0201C156.19 79.3401 156.11 79.7201 156.11 80.1401C156.11 80.5601 156.2 80.9401 156.37 81.2601C156.55 81.5801 156.79 81.8401 157.1 82.0201C157.41 82.2001 157.77 82.2901 158.17 82.2901C158.57 82.2901 158.93 82.1901 159.24 82.0201Z" fill="#857B71"/>
<path d="M169.44 82.75H168.6L165.92 80.3V82.75H165.32V77.52H165.92V79.86L168.32 77.52H169.11L166.5 80.06L169.44 82.75Z" fill="#857B71"/>
<path d="M174.92 77.52V82.75H174.32V78.08H171.78L171.63 80.12C171.58 80.71 171.5 81.18 171.39 81.54C171.28 81.9 171.11 82.19 170.9 82.39C170.69 82.59 170.41 82.74 170.07 82.82L169.94 82.29C170.18 82.22 170.37 82.1 170.52 81.94C170.66 81.78 170.78 81.55 170.85 81.25C170.93 80.95 170.99 80.55 171.03 80.05L171.22 77.51H174.92V77.52Z" fill="#857B71"/>
<path d="M180.71 77.52H181.2V82.75H180.6V79.72L180.61 78.53L177.11 82.74H176.61V77.51H177.21V80.27L177.2 81.7L180.71 77.52Z" fill="#857B71"/>
<path d="M186.88 77.52H187.48V82.75H186.88V80.33H183.5V82.75H182.9V77.52H183.5V79.75H186.89V77.52H186.88Z" fill="#857B71"/>
<path d="M193.28 77.52H193.77V82.75H193.17V79.72L193.18 78.53L189.68 82.74H189.18V77.51H189.78V80.27L189.77 81.7L193.28 77.52Z" fill="#857B71"/>
<path d="M199.58 82.75H198.74L196.06 80.3V82.75H195.46V77.52H196.06V79.86L198.46 77.52H199.25L196.64 80.06L199.58 82.75Z" fill="#857B71"/>
<path d="M206.04 77.76C206.45 77.99 206.78 78.31 207.01 78.72C207.25 79.13 207.36 79.61 207.36 80.14C207.36 80.67 207.24 81.14 207.01 81.55C206.77 81.96 206.45 82.28 206.03 82.51C205.61 82.74 205.15 82.85 204.63 82.85C203.87 82.85 203.22 82.59 202.69 82.07L203.07 81.65C203.27 81.85 203.51 82.01 203.78 82.12C204.05 82.23 204.33 82.28 204.62 82.28C204.99 82.28 205.34 82.2 205.65 82.04C205.96 81.88 206.22 81.65 206.41 81.35C206.6 81.05 206.71 80.7 206.73 80.3H204.07V79.76H206.72C206.64 79.21 206.41 78.78 206.02 78.46C205.63 78.14 205.16 77.98 204.63 77.98C204.34 77.98 204.07 78.03 203.8 78.13C203.54 78.23 203.31 78.39 203.11 78.59L202.73 78.19C203.27 77.67 203.89 77.41 204.61 77.41C205.16 77.42 205.62 77.53 206.04 77.76Z" fill="#857B71"/>
<path d="M209.67 82.51C209.25 82.28 208.93 81.96 208.7 81.55C208.47 81.14 208.35 80.67 208.35 80.14C208.35 79.6 208.47 79.13 208.7 78.72C208.93 78.31 209.26 77.99 209.67 77.76C210.08 77.53 210.55 77.42 211.07 77.42C211.79 77.42 212.42 77.68 212.95 78.2L212.57 78.6C212.37 78.4 212.14 78.24 211.88 78.14C211.62 78.04 211.34 77.99 211.05 77.99C210.66 77.99 210.31 78.08 209.99 78.25C209.67 78.42 209.42 78.67 209.23 79C209.04 79.32 208.95 79.71 208.95 80.14C208.95 80.57 209.04 80.95 209.23 81.27C209.42 81.59 209.67 81.84 209.99 82.02C210.31 82.2 210.67 82.28 211.06 82.28C211.36 82.28 211.64 82.23 211.91 82.12C212.18 82.01 212.41 81.86 212.62 81.64L213 82.06C212.47 82.58 211.83 82.84 211.06 82.84C210.55 82.86 210.09 82.74 209.67 82.51Z" fill="#857B71"/>
<path d="M218.06 77.52V78.08H216.17V82.75H215.57V78.08H213.68V77.52H218.06Z" fill="#857B71"/>
<path d="M222.73 77.7501C223.13 77.9701 223.44 78.2701 223.65 78.6701C223.87 79.0701 223.97 79.5201 223.97 80.0501C223.97 80.2001 223.97 80.3101 223.96 80.3801H219.31C219.36 80.9701 219.57 81.4401 219.94 81.7901C220.31 82.1401 220.79 82.3101 221.38 82.3101C221.75 82.3101 222.1 82.2401 222.44 82.1001C222.78 81.9601 223.04 81.7701 223.21 81.5401L223.62 81.9001C223.37 82.2101 223.05 82.4501 222.65 82.6201C222.25 82.7901 221.82 82.8801 221.36 82.8801C220.84 82.8801 220.37 82.7601 219.97 82.5301C219.56 82.3001 219.25 81.9701 219.02 81.5601C218.79 81.1501 218.68 80.6801 218.68 80.1501C218.68 79.6301 218.79 79.1601 219.01 78.7501C219.23 78.3401 219.54 78.0201 219.94 77.7901C220.34 77.5601 220.79 77.4501 221.31 77.4501C221.87 77.4301 222.33 77.5401 222.73 77.7501ZM219.94 78.4801C219.58 78.8201 219.37 79.2701 219.31 79.8401H223.38C223.37 79.2801 223.18 78.8301 222.81 78.4901C222.44 78.1501 221.95 77.9801 221.34 77.9801C220.77 77.9801 220.3 78.1501 219.94 78.4801Z" fill="#857B71"/>
<path d="M229.02 77.52V78.08H227.13V82.75H226.53V78.08H224.64V77.52H229.02Z" fill="#857B71"/>
<path d="M234.41 77.52H234.9V82.75H234.3V79.72L234.31 78.53L230.81 82.74H230.31V77.51H230.91V80.27L230.9 81.7L234.41 77.52Z" fill="#857B71"/>
<path d="M240.7 82.75H239.86L237.18 80.3V82.75H236.58V77.52H237.18V79.86L239.58 77.52H240.37L237.76 80.06L240.7 82.75Z" fill="#857B71"/>
<path d="M245.71 77.52H246.2V82.75H245.6V79.72L245.61 78.53L242.11 82.74H241.61V77.51H242.21V80.27L242.2 81.7L245.71 77.52Z" fill="#857B71"/>
<path d="M254.77 77.52H255.26V82.75H254.66V79.72L254.67 78.53L251.17 82.74H250.67V77.51H251.27V80.27L251.26 81.7L254.77 77.52Z" fill="#857B71"/>
<path d="M263.85 82.75H263.01L260.33 80.3V82.75H259.73V77.52H260.33V79.86L262.73 77.52H263.52L260.91 80.06L263.85 82.75Z" fill="#857B71"/>
<path d="M269.46 77.5201V82.7501H268.9V81.7101C268.7 82.0601 268.4 82.3301 268.02 82.5401C267.64 82.7401 267.21 82.8501 266.73 82.8501C266.22 82.8501 265.77 82.7401 265.38 82.5101C264.98 82.2801 264.68 81.9601 264.45 81.5501C264.23 81.1401 264.12 80.6701 264.12 80.1501C264.12 79.6301 264.23 79.1601 264.45 78.7501C264.67 78.3401 264.98 78.0201 265.38 77.7901C265.77 77.5601 266.23 77.4501 266.73 77.4501C267.21 77.4501 267.64 77.5501 268.02 77.7601C268.4 77.9601 268.69 78.2401 268.9 78.6001V77.5501H269.46V77.5201ZM267.86 82.0201C268.17 81.8401 268.42 81.5901 268.6 81.2601C268.78 80.9401 268.86 80.5601 268.86 80.1401C268.86 79.7201 268.77 79.3401 268.6 79.0201C268.42 78.7001 268.18 78.4401 267.86 78.2601C267.55 78.0801 267.19 77.9901 266.79 77.9901C266.39 77.9901 266.03 78.0801 265.72 78.2601C265.41 78.4401 265.17 78.6901 264.99 79.0201C264.81 79.3401 264.73 79.7201 264.73 80.1401C264.73 80.5601 264.82 80.9401 264.99 81.2601C265.17 81.5801 265.41 81.8401 265.72 82.0201C266.03 82.2001 266.39 82.2901 266.79 82.2901C267.18 82.2801 267.54 82.1901 267.86 82.0201Z" fill="#857B71"/>
<path d="M275.12 77.52V82.75H274.52V80.49C274.33 80.71 274.09 80.88 273.8 81C273.51 81.12 273.2 81.18 272.86 81.18C272.25 81.18 271.77 80.99 271.42 80.62C271.06 80.25 270.89 79.74 270.89 79.11V77.52H271.48V79.05C271.48 79.55 271.6 79.94 271.85 80.21C272.1 80.48 272.46 80.62 272.93 80.62C273.42 80.62 273.8 80.48 274.09 80.21C274.38 79.94 274.52 79.57 274.52 79.11V77.52H275.12Z" fill="#857B71"/>
<path d="M280.5 77.7501C280.9 77.9701 281.21 78.2701 281.42 78.6701C281.64 79.0701 281.74 79.5201 281.74 80.0501C281.74 80.2001 281.74 80.3101 281.73 80.3801H277.08C277.13 80.9701 277.34 81.4401 277.71 81.7901C278.08 82.1401 278.56 82.3101 279.15 82.3101C279.52 82.3101 279.87 82.2401 280.21 82.1001C280.55 81.9601 280.81 81.7701 280.98 81.5401L281.39 81.9001C281.14 82.2101 280.82 82.4501 280.42 82.6201C280.02 82.7901 279.59 82.8801 279.13 82.8801C278.61 82.8801 278.14 82.7601 277.74 82.5301C277.33 82.3001 277.02 81.9701 276.79 81.5601C276.56 81.1501 276.45 80.6801 276.45 80.1501C276.45 79.6301 276.56 79.1601 276.78 78.7501C277 78.3401 277.31 78.0201 277.71 77.7901C278.11 77.5601 278.56 77.4501 279.08 77.4501C279.63 77.4301 280.1 77.5401 280.5 77.7501ZM277.71 78.4801C277.35 78.8201 277.14 79.2701 277.08 79.8401H281.15C281.14 79.2801 280.95 78.8301 280.58 78.4901C280.21 78.1501 279.72 77.9801 279.11 77.9801C278.54 77.9801 278.07 78.1501 277.71 78.4801Z" fill="#857B71"/>
<path d="M283.97 82.51C283.55 82.28 283.23 81.96 283 81.55C282.77 81.14 282.65 80.67 282.65 80.14C282.65 79.6 282.77 79.13 283 78.72C283.23 78.31 283.56 77.99 283.97 77.76C284.38 77.53 284.85 77.42 285.37 77.42C286.09 77.42 286.72 77.68 287.25 78.2L286.87 78.6C286.67 78.4 286.44 78.24 286.18 78.14C285.92 78.04 285.64 77.99 285.35 77.99C284.96 77.99 284.61 78.08 284.29 78.25C283.97 78.42 283.72 78.67 283.53 79C283.34 79.32 283.25 79.71 283.25 80.14C283.25 80.57 283.34 80.95 283.53 81.27C283.72 81.59 283.97 81.84 284.29 82.02C284.61 82.2 284.97 82.28 285.36 82.28C285.66 82.28 285.94 82.23 286.21 82.12C286.48 82.01 286.71 81.86 286.92 81.64L287.3 82.06C286.77 82.58 286.13 82.84 285.36 82.84C284.86 82.86 284.39 82.74 283.97 82.51Z" fill="#857B71"/>
<path d="M292.36 77.52V78.08H290.47V82.75H289.87V78.08H287.98V77.52H292.36Z" fill="#857B71"/>
<path d="M297.78 80.56C297.95 80.78 298.03 81.04 298.03 81.34C298.03 81.79 297.88 82.14 297.58 82.39C297.28 82.64 296.86 82.76 296.32 82.76H293.64V77.53H296.32C296.79 77.53 297.16 77.65 297.44 77.89C297.72 78.13 297.86 78.47 297.86 78.89C297.86 79.17 297.79 79.42 297.66 79.63C297.53 79.84 297.35 79.99 297.12 80.08C297.39 80.18 297.61 80.33 297.78 80.56ZM296.98 78.29C296.79 78.14 296.54 78.06 296.22 78.06H294.22V79.83H296.17C296.52 79.83 296.79 79.75 296.98 79.6C297.17 79.45 297.27 79.23 297.27 78.94C297.26 78.66 297.17 78.44 296.98 78.29ZM297.14 81.98C297.34 81.82 297.45 81.59 297.45 81.3C297.45 81.01 297.34 80.78 297.12 80.61C296.9 80.44 296.59 80.35 296.19 80.35H294.22V82.22H296.24C296.63 82.22 296.93 82.14 297.14 81.98Z" fill="#857B71"/>
<path d="M304.31 77.5201V82.7501H303.75V81.7101C303.55 82.0601 303.25 82.3301 302.87 82.5401C302.49 82.7401 302.06 82.8501 301.58 82.8501C301.07 82.8501 300.62 82.7401 300.23 82.5101C299.83 82.2801 299.53 81.9601 299.3 81.5501C299.08 81.1401 298.97 80.6701 298.97 80.1501C298.97 79.6301 299.08 79.1601 299.3 78.7501C299.52 78.3401 299.83 78.0201 300.23 77.7901C300.62 77.5601 301.08 77.4501 301.58 77.4501C302.06 77.4501 302.49 77.5501 302.87 77.7601C303.25 77.9601 303.54 78.2401 303.75 78.6001V77.5501H304.31V77.5201ZM302.71 82.0201C303.02 81.8401 303.27 81.5901 303.45 81.2601C303.63 80.9401 303.71 80.5601 303.71 80.1401C303.71 79.7201 303.62 79.3401 303.45 79.0201C303.27 78.7001 303.03 78.4401 302.71 78.2601C302.4 78.0801 302.04 77.9901 301.64 77.9901C301.24 77.9901 300.88 78.0801 300.57 78.2601C300.26 78.4401 300.02 78.6901 299.84 79.0201C299.66 79.3401 299.58 79.7201 299.58 80.1401C299.58 80.5601 299.67 80.9401 299.84 81.2601C300.02 81.5801 300.26 81.8401 300.57 82.0201C300.88 82.2001 301.24 82.2901 301.64 82.2901C302.03 82.2801 302.39 82.1901 302.71 82.0201Z" fill="#857B71"/>
<path d="M315.29 82.75H314.48L311.94 80.29V82.75H311.35V80.29L308.81 82.75H308L310.75 80.07L308.32 77.52H309.1L311.35 79.88V77.52H311.94V79.88L314.19 77.52H314.96L312.54 80.06L315.29 82.75Z" fill="#857B71"/>
<path d="M320.29 77.52H320.78V82.75H320.18V79.72L320.19 78.53L316.69 82.74H316.19V77.51H316.79V80.27L316.78 81.7L320.29 77.52Z" fill="#857B71"/>
<path d="M325.89 80.57C326.05 80.8 326.13 81.06 326.13 81.36C326.13 81.84 325.95 82.21 325.58 82.49C325.21 82.76 324.71 82.9 324.07 82.9C323.63 82.9 323.22 82.83 322.86 82.69C322.5 82.55 322.19 82.34 321.94 82.08L322.27 81.66C322.51 81.9 322.78 82.08 323.07 82.19C323.36 82.3 323.69 82.36 324.06 82.36C324.53 82.36 324.89 82.27 325.14 82.09C325.4 81.91 325.53 81.66 325.53 81.33C325.53 81.03 325.42 80.79 325.19 80.61C324.96 80.43 324.65 80.34 324.26 80.34H323.16V79.81H324.23C324.59 79.81 324.87 79.73 325.07 79.57C325.27 79.41 325.37 79.19 325.37 78.9C325.37 78.6 325.26 78.36 325.03 78.2C324.8 78.04 324.48 77.96 324.06 77.96C323.43 77.96 322.89 78.19 322.44 78.65L322.09 78.26C322.62 77.7 323.28 77.41 324.08 77.41C324.67 77.41 325.13 77.54 325.47 77.8C325.8 78.06 325.97 78.42 325.97 78.87C325.97 79.14 325.9 79.38 325.77 79.6C325.64 79.82 325.46 79.98 325.23 80.08C325.5 80.17 325.73 80.34 325.89 80.57Z" fill="#857B71"/>
<path d="M331.47 77.52H332.07V82.75H331.47V80.33H328.08V82.75H327.48V77.52H328.08V79.75H331.47V77.52Z" fill="#857B71"/>
<path d="M337.87 77.52H338.36V82.75H337.76V79.72L337.77 78.53L334.27 82.74H333.77V77.51H334.37V80.27L334.36 81.7L337.87 77.52Z" fill="#857B71"/>
<path d="M68.3499 20.66C69.7199 20.86 71.0999 21.03 72.4699 21.27C85.7199 23.64 95.2399 30.9 100.67 43.17C104.85 52.62 104.83 62.34 101.14 71.95C97.6499 81.03 91.4899 87.89 82.8899 92.5C77.1099 95.6 70.8999 97.28 64.3699 97.03C48.8299 96.45 37.5299 89.15 30.7499 75.11C29.4699 72.46 28.6899 69.63 28.1699 66.92C29.7299 68.74 31.2499 70.8 33.0499 72.55C38.3899 77.75 44.8299 80.72 52.2899 81.35C60.9699 82.08 68.7199 79.62 75.3799 74.06C80.9199 69.45 84.4999 63.53 85.9099 56.45C87.7599 47.13 85.8399 38.58 80.1199 30.98C76.8199 26.59 72.5599 23.31 67.4799 21.16C67.1399 21.02 66.8199 20.82 66.4999 20.65C67.0999 20.66 67.7199 20.66 68.3499 20.66Z" fill="#857B71"/>
<path d="M61.96 75.07C70.05 68.72 73.38 60.7 70.24 50.83C67.55 42.36 61.31 37.31 52.47 36.38C42.48 35.33 35.29 39.93 30.69 48.84C30.68 45.51 31.4 42.3999 32.72 39.4399C36.92 30.0099 46.07 24.53 56.26 24.85C68.42 25.24 78.57 33.85 81.15 45.7C83.7 57.45 77.45 69.2499 66.28 73.6999C64.87 74.2599 63.4 74.62 61.96 75.07Z" fill="#857B71"/>
<path d="M163.39 68.9901C163.39 58.6101 163.39 48.3901 163.39 38.0301C165.25 38.0301 167.07 38.0101 168.89 38.0601C169.13 38.0701 169.42 38.4401 169.59 38.7101C172.5 43.4301 175.39 48.1701 178.28 52.8901C178.44 53.1501 178.63 53.3901 178.89 53.7601C179.61 52.6101 180.28 51.5501 180.93 50.4801C183.34 46.5401 185.74 42.5901 188.18 38.6801C188.38 38.3601 188.88 38.0601 189.26 38.0401C190.72 37.9701 192.18 38.0401 193.64 38.0001C194.28 37.9801 194.42 38.2501 194.42 38.8301C194.41 48.6301 194.42 58.4301 194.39 68.2201C194.39 68.4801 194.07 68.9501 193.89 68.9501C192.34 69.0101 190.79 68.9801 189.1 68.9801C189.1 61.6701 189.1 54.4501 189.1 47.2301C189 47.2001 188.91 47.1701 188.81 47.1501C185.54 52.4901 182.27 57.8301 178.88 63.3601C175.51 57.8601 172.23 52.5101 168.95 47.1601C168.86 47.1801 168.77 47.2101 168.68 47.2301C168.68 47.6101 168.68 48.0001 168.68 48.3801C168.68 54.8601 168.66 61.3401 168.7 67.8201C168.71 68.7901 168.42 69.0401 167.49 68.9901C166.16 68.9301 164.83 68.9901 163.39 68.9901Z" fill="#857B71"/>
<path d="M153.73 43.47C152.3 44.29 150.85 45.11 149.37 45.96C147.45 43.94 145.1 42.87 142.39 42.53C135.17 41.63 129.15 47.02 129.96 54.91C130.56 60.8 135.05 64.16 140.53 64.48C143.29 64.64 145.92 64.25 148.23 62.57C150.04 61.25 151.02 59.4 151.65 57.16C151.24 57.13 150.92 57.09 150.6 57.09C148.14 57.08 145.69 57.06 143.23 57.1C142.47 57.11 142.26 56.86 142.29 56.14C142.34 55.06 142.3 53.98 142.3 52.8C142.67 52.77 142.97 52.74 143.26 52.74C147.43 52.74 151.59 52.76 155.76 52.72C156.55 52.71 156.73 52.96 156.75 53.72C156.81 57.72 155.95 61.43 153.33 64.56C150.76 67.63 147.35 69.15 143.44 69.52C138.98 69.94 134.75 69.13 131.09 66.4C125.85 62.48 123.88 57.19 124.82 50.8C125.87 43.63 132.03 37.94 139.46 37.44C145.01 37.07 149.73 38.73 153.46 42.94C153.54 43.03 153.61 43.13 153.68 43.24C153.69 43.27 153.69 43.34 153.73 43.47Z" fill="#857B71"/>
<path d="M48.4098 74.77C40.5598 74.63 33.5498 68.18 33.0598 59.86C32.5198 50.61 39.4598 43.15 47.6598 42.12C57.0998 40.94 64.2198 47.6 65.4498 54.59C61.4498 49.5 56.3198 47.32 49.9598 49.25C44.7098 50.84 41.5298 54.57 40.5298 59.97C39.5198 65.46 41.9998 71.56 48.4098 74.77Z" fill="#857B71"/>
<path d="M208.68 68.99C208.68 68.49 208.68 68.12 208.68 67.76C208.68 59.92 208.68 52.08 208.68 44.23C208.68 43 208.68 42.99 207.45 42.99C205.31 42.99 203.16 42.96 201.02 43C200.28 43.01 200.05 42.76 200.08 42.04C200.13 40.75 200.09 39.45 200.09 38.08C207.58 38.08 215 38.08 222.56 38.08C222.56 39.57 222.58 41.08 222.53 42.58C222.52 42.72 222.04 42.96 221.77 42.97C219.53 43 217.3 43.02 215.06 42.97C214.23 42.95 213.95 43.18 213.95 44.06C213.98 51.99 213.95 59.93 213.98 67.86C213.98 68.76 213.73 69.05 212.83 69C211.52 68.93 210.18 68.99 208.68 68.99Z" fill="#857B71"/>
<path d="M257.88 44.29C257.21 44.68 256.61 45.03 256 45.39C250.69 36.62 238.86 37.32 233.47 42.47C227.31 48.35 227.41 58.78 233.53 64.54C239.07 69.76 251.08 70.18 256.09 61.43C256.7 61.78 257.31 62.12 257.91 62.47C256.36 66.32 250.33 71.15 242.02 70.49C233.91 69.84 227.32 63.39 226.62 55.39C225.74 45.41 232.08 38.73 239 37.01C247.63 34.87 254.99 38.85 257.88 44.29Z" fill="#857B71"/>
<path d="M285.45 69.81C285.27 69.88 285.19 69.93 285.1 69.94C283.31 70.14 283.27 70.11 283.27 68.32C283.27 61.56 283.27 54.8 283.27 48.04C283.27 46.26 283.56 46.05 285.46 46.59C285.46 47.91 285.46 49.26 285.46 50.61C285.52 50.63 285.58 50.66 285.65 50.68C285.8 50.48 285.96 50.28 286.1 50.07C287.75 47.46 290.13 46.13 293.21 45.98C295.94 45.85 298.48 46.27 300.54 48.25C302.18 49.83 303.11 51.8 303.16 54.03C303.26 59.17 303.21 64.32 303.21 69.47C303.21 69.59 303.17 69.71 303.15 69.83C303.04 69.87 302.96 69.92 302.87 69.93C301.04 70.07 301.04 70.07 301.04 68.24C301.04 63.84 301.09 59.43 301.02 55.03C300.98 52.34 300.04 49.96 297.46 48.75C293.15 46.73 286.52 48.43 285.76 54.89C285.24 59.33 285.53 63.86 285.47 68.35C285.45 68.86 285.45 69.35 285.45 69.81Z" fill="#857B71"/>
<path d="M339.39 63.59C339.99 63.95 340.54 64.28 341.08 64.6C339.27 68.61 334.05 71.1 328.82 70.42C322.95 69.65 318.24 64.8 318.26 58.11C318.28 52.4 322.28 47.34 327.66 46.24C333.38 45.07 339.03 47.44 340.9 51.88C340.4 52.19 339.88 52.5 339.27 52.87C337.32 49.5 334.32 47.99 330.54 48C327.64 48.01 325.15 49.08 323.17 51.23C319.18 55.57 319.71 62.49 324.23 66.24C328.19 69.53 335.77 69.55 339.39 63.59Z" fill="#857B71"/>
<path d="M263.84 35.69C264 35.64 264.08 35.59 264.17 35.58C265.94 35.41 265.95 35.43 265.95 37.17C265.95 47.74 265.95 58.32 265.95 68.89C265.95 69.2 265.95 69.51 265.95 69.78C265.86 69.85 265.82 69.92 265.77 69.92C263.79 70.15 263.79 70.15 263.79 68.2C263.79 57.78 263.79 47.36 263.79 36.94C263.78 36.53 263.82 36.1 263.84 35.69Z" fill="#857B71"/>
<path d="M312.33 69.91C311.58 69.91 310.95 69.91 310.18 69.91C310.18 69.51 310.18 69.15 310.18 68.79C310.18 61.7 310.18 54.6 310.19 47.51C310.19 47.16 310.33 46.54 310.51 46.5C311.03 46.38 311.61 46.45 312.15 46.56C312.26 46.58 312.32 47.1 312.32 47.39C312.33 52.22 312.33 57.05 312.33 61.89C312.33 64.51 312.33 67.14 312.33 69.91Z" fill="#857B71"/>
<path d="M275.73 58.16C275.73 61.78 275.71 65.41 275.75 69.03C275.76 69.85 275.45 70.03 274.72 69.99C274.06 69.96 273.55 70.02 273.55 69.05C273.59 61.8 273.58 54.56 273.56 47.31C273.56 46.43 273.98 46.38 274.65 46.4C275.28 46.42 275.77 46.35 275.75 47.28C275.7 50.91 275.73 54.54 275.73 58.16Z" fill="#857B71"/>
<path d="M311.3 40.51C310.37 40.53 309.49 39.71 309.46 38.8C309.43 37.81 310.27 36.94 311.25 36.95C312.19 36.95 313.04 37.79 313.06 38.71C313.07 39.6 312.2 40.49 311.3 40.51Z" fill="#857B71"/>
<path d="M276.38 38.74C276.37 39.72 275.57 40.52 274.63 40.52C273.65 40.51 272.85 39.67 272.86 38.66C272.88 37.7 273.7 36.92 274.66 36.94C275.62 36.96 276.39 37.76 276.38 38.74Z" fill="#857B71"/>
</svg>
