<svg width="125" height="116" viewBox="0 0 125 116" fill="none" xmlns="http://www.w3.org/2000/svg">
<path d="M65.1778 9.44971C66.9127 9.70298 68.6603 9.91826 70.3952 10.2222C87.1746 13.2235 99.2304 22.4173 106.107 37.9556C111.4 49.9227 111.375 62.2318 106.702 74.4016C102.282 85.9002 94.4815 94.5874 83.5908 100.425C76.2712 104.351 68.407 106.479 60.1377 106.162C40.4584 105.428 26.1484 96.1831 17.5625 78.4033C15.9415 75.0474 14.9538 71.4636 14.2953 68.0318C16.2708 70.3365 18.1957 72.9453 20.4751 75.1614C27.2375 81.7465 35.3929 85.5076 44.84 86.3054C55.832 87.2299 65.6464 84.1146 74.0804 77.0736C81.096 71.2357 85.6296 63.7388 87.4152 54.7729C89.758 42.9704 87.3265 32.143 80.0829 22.5186C75.9039 16.9593 70.5092 12.8056 64.0761 10.0829C63.6455 9.9056 63.2403 9.65232 62.835 9.43704C63.5949 9.44971 64.38 9.44971 65.1778 9.44971Z" fill="#857B71"/>
<path d="M57.0858 78.3527C67.3307 70.3112 71.5476 60.155 67.5713 47.656C64.1647 36.9299 56.2626 30.5347 45.068 29.357C32.417 28.0273 23.3118 33.8526 17.4865 45.1359C17.4739 40.9189 18.3856 36.9805 20.0572 33.2321C25.376 21.2902 36.9632 14.3506 49.8675 14.7558C65.2665 15.2497 78.1201 26.1531 81.3873 41.1595C84.6165 56.0393 76.7018 70.9824 62.5565 76.6177C60.7709 77.3269 58.9093 77.7828 57.0858 78.3527Z" fill="#857B71"/>
<path d="M39.9265 77.9727C29.9855 77.7954 21.1083 69.6274 20.4878 59.0912C19.8039 47.3774 28.5925 37.9303 38.9767 36.6259C50.9312 35.1316 59.9477 43.5656 61.5053 52.4175C56.4399 45.9717 49.9434 43.211 41.8894 45.6551C35.2409 47.6686 31.2139 52.3922 29.9475 59.2305C28.6685 66.1829 31.8091 73.9077 39.9265 77.9727Z" fill="#857B71"/>
</svg>
