<svg width="125" height="116" viewBox="0 0 125 116" fill="none" xmlns="http://www.w3.org/2000/svg">
<path d="M82.6802 94.55C82.6802 94.55 112.6 60.67 115.07 36.44C117.56 12.21 98.8502 6.88999 90.3902 12.74C81.9302 18.6 74.5902 33.37 74.8202 53.2C75.0702 73.03 82.6802 94.55 82.6802 94.55Z" fill="#F7D588"/>
<path d="M82.6798 94.55C82.6798 94.55 89.8298 36.11 74.3298 21.27C58.8298 6.45003 50.8298 9.81003 42.4698 18.99C34.0998 28.18 40.9498 53.08 43.5498 58.85C46.1698 64.62 52.9398 83.07 82.6798 94.55Z" fill="#AEC96D"/>
<path d="M82.6798 94.55C82.6798 94.55 70.8098 49.29 36.1398 48.08C1.45978 46.87 13.7598 79.44 16.4898 83.27C19.2198 87.11 33.6698 112.46 82.6798 94.55Z" fill="#BCDFDC"/>
<path d="M57.9102 105.07C57.9102 105.07 78.7002 101.83 85.5902 97.7901C92.4702 93.7401 91.8802 93.5401 94.5602 93.4101C97.2302 93.2801 96.4502 86.4501 91.9202 88.2801C87.3802 90.1301 87.6002 91.5201 86.7102 92.2201C85.8402 92.9301 65.6202 101.6 62.9502 102.73C60.2702 103.86 57.9102 105.07 57.9102 105.07Z" fill="#EEE0BF"/>
</svg>
