<svg width="270" height="116" viewBox="0 0 270 116" fill="none" xmlns="http://www.w3.org/2000/svg">
<path d="M228.91 89.69C228.91 93.51 232 96.61 235.83 96.61C239.65 96.61 242.75 93.51 242.75 89.69C242.75 85.87 239.65 82.77 235.83 82.77C232 82.77 228.91 85.87 228.91 89.69Z" fill="#EEE0BF"/>
<path d="M154.37 54.3001C154.37 54.3001 170.98 35.4901 172.35 22.0401C173.73 8.59006 163.34 5.64005 158.65 8.89005C153.95 12.1401 149.88 20.3401 150.01 31.3501C150.15 42.3601 154.37 54.3001 154.37 54.3001Z" fill="#F7D588"/>
<path d="M154.37 54.2999C154.37 54.2999 158.34 21.86 149.74 13.62C141.13 5.38995 136.69 7.25995 132.05 12.35C127.41 17.45 131.21 31.27 132.65 34.47C134.1 37.69 137.86 47.9299 154.37 54.2999Z" fill="#AEC96D"/>
<path d="M154.37 54.3C154.37 54.3 147.78 29.18 128.54 28.51C109.29 27.84 116.12 45.92 117.63 48.04C119.14 50.18 127.16 64.25 154.37 54.3Z" fill="#BCDFDC"/>
<path d="M140.62 60.14C140.62 60.14 152.16 58.34 155.98 56.1C159.8 53.85 159.47 53.74 160.96 53.67C162.44 53.6 162.01 49.8 159.49 50.82C156.97 51.85 157.09 52.62 156.6 53.01C156.12 53.41 144.89 58.22 143.41 58.84C141.93 59.47 140.62 60.14 140.62 60.14Z" fill="#EEE0BF"/>
<path d="M159.52 70.9001C159.52 70.9001 115.6 47.34 68.5498 56.36" stroke="#AEC96D" stroke-width="1.1614" stroke-linecap="round" stroke-linejoin="round" stroke-dasharray="3.27 3.27"/>
<path d="M151.67 84.11C151.67 84.11 153.89 78.57 156.29 77.93C158.68 77.3 158.76 82.21 158.78 82.98C158.8 83.75 158.69 87.01 158.49 89.96C158.29 92.9 157.81 97.59 157.71 99.13C157.61 100.68 157.27 104.19 157.27 104.19C158.9 103.41 159.71 103.02 161.34 102.25C161.83 96.22 162.06 93.51 162.5 88.18C162.5 88.18 162.91 84.97 162.56 79.61C162.33 76.18 161.43 73.35 157.89 73.17C154.35 72.99 149.65 78.15 148.97 79.31C148.29 80.46 146.75 83.95 146.75 83.95C143.85 83.95 142.39 83.95 139.49 83.94C141.31 79.69 142.23 77.62 144.08 73.37C140.18 74.05 138.23 74.39 134.34 75.06C134.34 75.06 131.78 83.03 130.76 85.56C129.73 88.08 128.92 90.03 128.31 90.76C127.69 91.49 128.15 92.56 128.15 92.56C128.17 92.4 123.48 107.41 123.48 107.41C127.11 106.28 128.93 105.72 132.58 104.6C134.46 98.21 135.4 95.27 137.28 89.54C140.07 89.53 141.46 89.53 144.25 89.52C142.2 95.77 141.18 98.97 139.13 106.1C141.65 105.38 142.92 105.02 145.45 104.31C147.24 98.01 148.13 95.15 149.91 89.56C151.35 89.57 152.07 89.58 153.51 89.59C154.4 87.36 154.85 86.27 155.75 84.09C154.11 84.11 153.29 84.11 151.67 84.11Z" fill="white"/>
<path d="M118.97 80.95C119.07 80.67 119.19 80.38 119.24 80.11C119.34 79.61 119.3 79.06 119.23 78.56C119.16 78.07 118.88 77.73 118.39 77.57C117.36 77.22 116.42 77.33 115.58 77.89C114.75 78.45 114.04 79.19 113.43 80.03C113.25 80.28 113.07 80.53 112.89 80.78C112.71 81.03 112.57 81.27 112.46 81.49C112.44 81.54 112.4 81.61 112.36 81.69C112.32 81.76 112.28 81.91 112.23 81.97C112.19 82.01 112.1 82.07 112.06 82.15C112.02 82.22 111.97 82.32 111.92 82.43C111.47 83.44 111.21 84.55 111.08 85.63C110.95 86.7 111 88.71 111.1 88.77C111.36 88.92 113.67 87.43 114.86 86.44C116.04 85.46 117 84.32 117.77 83.18C117.94 82.93 118.12 82.67 118.28 82.41C118.43 82.16 118.58 81.88 118.7 81.62C118.77 81.45 118.87 81.23 118.97 80.95ZM131.3 90.69C131.07 91.04 130.86 91.38 130.64 91.67C128.09 95.13 124.15 98.06 119.51 100.26C114.86 102.47 110.4 102.95 106.74 101.42C106.69 101.4 106.6 101.36 106.51 101.33C106.41 101.29 106.29 101.17 106.22 101.13C106.19 101.11 106.09 101.08 105.99 101.04C105.88 101 105.76 100.96 105.66 100.93C103.45 100.1 101.88 97.74 101.36 94.87C100.84 91.99 101.43 88.88 102.95 85.59C103.02 85.43 103.1 85.25 103.19 85.06C103.28 84.87 103.35 84.69 103.43 84.53C103.51 84.36 103.6 84.19 103.72 84.02C103.84 83.84 103.93 83.66 104.01 83.5C104.96 81.72 106.25 80.13 107.71 78.78C109.17 77.43 110.69 76.23 112.2 75.47C112.35 75.39 112.53 75.31 112.7 75.22C112.87 75.12 113.04 75.04 113.2 74.97C114.59 74.31 116.12 73.7 117.7 73.3C119.28 72.9 120.77 72.92 122.11 73.4C122.27 73.46 122.43 73.51 122.6 73.57C122.76 73.62 122.91 73.72 123.05 73.82C124.22 74.64 125 75.71 125.17 77.04C125.34 78.37 125.24 79.77 124.76 80.97C124.68 81.18 124.56 81.42 124.47 81.67C124.38 81.92 124.28 82.16 124.18 82.37C123.94 82.86 123.66 83.34 123.36 83.83C123.06 84.32 122.73 84.83 122.37 85.33C121.18 86.93 119.69 88.36 117.95 89.61C116.21 90.86 112.53 91.94 112.49 92.04C112.45 92.13 113.18 93 113.59 93.39C114 93.79 114.45 94.15 114.93 94.45C115.17 94.6 115.41 94.74 115.64 94.85C115.87 94.96 116.12 95.08 116.38 95.16C117.43 95.51 118.63 95.59 119.85 95.5C121.07 95.41 122.32 95.04 123.57 94.46C124.78 93.91 125.97 93.16 127.05 92.18C128.13 91.2 129.04 89.99 129.82 88.72C130.04 88.36 130.35 88.11 130.67 88.01C131.01 87.9 131.33 87.88 131.58 87.98C131.63 88 131.7 88.07 131.78 88.14C131.94 88.28 132.12 88.45 132.22 88.67C132.33 88.9 132.26 89.17 132.07 89.48C132.04 89.53 132.02 89.57 132.01 89.6C132 89.63 131.98 89.68 131.95 89.72C131.77 90.02 131.52 90.35 131.3 90.69Z" fill="white"/>
<path d="M173.57 86.66C172.88 87.21 172.3 87.91 171.82 88.67C171.56 89.08 171.32 89.5 171.13 89.91C170.95 90.32 170.73 90.93 170.77 90.99C170.78 91 170.85 91.01 170.89 91.02C170.92 91.02 170.95 91.04 171 91.05C171.05 91.06 171.11 91.07 171.16 91.09C172.01 91.35 173.03 91.19 173.93 90.75C174.83 90.31 175.69 89.75 176.18 89.1C176.33 88.9 176.46 88.64 176.6 88.44C176.74 88.24 176.84 88.04 176.92 87.85C177.07 87.47 177.06 87.11 176.94 86.8C176.81 86.49 176.48 86.27 175.95 86.15C175.07 85.95 174.27 86.11 173.57 86.66ZM185.95 57.72C185.87 57.55 185.75 57.29 185.65 57.23C185.62 57.21 185.52 57.19 185.46 57.14C185.4 57.09 185.33 57.05 185.28 57.04C184.96 56.96 184.59 57.06 184.17 57.34C183.75 57.62 183.28 58.04 182.81 58.57C182.13 59.34 181.49 60.29 180.92 61.38C180.35 62.47 179.81 63.66 179.34 64.92C179 65.83 178.66 66.75 178.34 67.67C178.02 68.59 177.68 69.49 177.34 70.36C177 71.22 176.66 72.12 176.32 72.99C175.97 73.88 175.29 75.6 175.29 75.6C175.3 75.6 175.63 75.34 175.84 75.18C176.04 75.03 176.24 74.85 176.42 74.69C177.52 73.76 178.8 72.65 180.06 71.34C181.32 70.03 182.43 68.65 183.4 67.21C183.81 66.6 184.18 65.98 184.51 65.34C184.84 64.7 185.13 64.05 185.38 63.37C185.71 62.49 185.93 61.65 186.06 60.84C186.19 60.03 186.15 59.19 186.08 58.41C186.06 58.14 186.03 57.9 185.95 57.72ZM192.09 96.17C191.71 96.51 191.29 96.82 190.93 97.13C190.84 97.21 190.73 97.33 190.61 97.43C190.48 97.54 190.32 97.64 190.2 97.72C189.23 98.4 188.18 99.52 187.17 100.39C186.16 101.26 185.11 102.13 184.04 102.94C182.6 104.03 181.11 104.88 179.6 105.44C178.09 106 176.64 106.12 175.4 105.74C174.56 105.48 173.76 104.94 173.07 104.26C172.37 103.58 171.75 102.56 171.39 101.35C171.26 100.92 171.12 100.45 170.97 100C170.82 99.56 170.64 99.09 170.47 98.65C170.15 97.79 169.87 96.89 169.58 96.04C169.29 95.19 168.96 94.33 168.59 93.48C167.43 96.96 166.85 98.75 165.68 102.57C161.46 104.18 159.36 105 155.16 106.66C156.13 103.62 158.93 93.95 159.87 91.32C160.81 88.69 161.76 86.13 162.72 83.6C163.68 81.08 168.84 69.44 172.46 63.09C176.08 56.74 177.35 55.94 179.89 54.57C181.42 53.74 181.9 53.74 182.98 53.58C183.4 53.52 183.46 53.44 183.87 53.46C184.31 53.48 184.71 53.54 185.08 53.64C186.62 54.05 188.55 55.22 189.12 57.04C189.69 58.86 188.58 61.19 187.56 63.91C187.37 64.42 187.16 64.93 186.94 65.43C186.72 65.92 186.44 66.39 186.2 66.8C184.83 69.11 183.16 71.57 181.03 73.62C178.89 75.67 176.6 77.39 174.15 78.8C173.13 81.49 172.62 82.82 171.6 85.55C171.9 85.2 172.29 84.83 172.77 84.42C173.24 84.01 173.77 83.6 174.31 83.21C175.43 82.4 176.69 81.62 178.06 80.97C179.44 80.31 180.89 79.85 181.94 79.98C182.03 79.99 182.19 80.02 182.35 80.03C182.52 80.04 182.68 80.06 182.84 80.1C183.2 80.18 183.55 80.29 183.86 80.44C184.17 80.58 184.44 80.84 184.67 81.12C185.13 81.69 185.44 82.33 185.45 83.01C185.46 83.7 185.3 84.45 184.98 85.26C184.83 85.64 184.63 86.04 184.38 86.45C184.14 86.85 183.87 87.27 183.59 87.68C182.96 88.59 182.23 89.46 181.43 90.29C180.63 91.13 179.74 91.82 179.05 92.41C178.87 92.56 178.68 92.75 178.48 92.9C178.29 93.05 178.08 93.18 177.87 93.29C180.37 95.88 181.62 97.2 184.08 100C184.73 99.45 185.38 98.91 186.02 98.37C186.67 97.83 187.32 97.25 187.98 96.7C188.6 96.18 189.29 95.65 189.96 95.14C190.63 94.63 191.28 94.11 191.93 93.61C192.09 93.48 192.24 93.4 192.37 93.35C192.5 93.3 192.66 93.32 192.72 93.31C192.77 93.3 192.85 93.26 192.9 93.27C192.96 93.29 193.01 93.29 193.07 93.3C193.37 93.37 193.61 93.53 193.74 93.79C193.87 94.04 193.88 94.32 193.76 94.63C193.72 94.73 193.66 94.85 193.59 94.96C193.52 95.08 193.4 95.18 193.27 95.26C192.86 95.48 192.46 95.84 192.09 96.17Z" fill="white"/>
<path d="M206.33 81.81C206.29 81.69 203.45 79.61 202.21 79.57C201.17 79.54 200.3 79.93 199.56 80.98C198.82 82.04 198.26 83.32 197.87 84.78C197.82 84.95 197.78 85.13 197.74 85.3C197.7 85.46 197.71 85.67 197.7 85.82C197.67 87.3 197.35 89.23 197.6 90.81C197.85 92.4 198.44 93.45 199.48 93.55C199.54 93.56 200.37 93.43 200.44 93.4C200.55 93.34 202.14 93.01 202.24 92.9C203.88 88.24 204.7 86.1 206.33 81.81ZM220.38 97.05C217.99 98.93 215.57 100.9 213.21 102.98C212.15 103.92 211.04 104.69 209.93 105.25C208.83 105.8 207.64 106.01 206.37 105.84C204.66 105.6 203.32 104.78 202.36 103.44C201.39 102.09 201.39 98.3 201.39 98.3C201.38 98.3 198.36 103.83 195.99 104.86C194.54 105.5 192.47 105.33 191.2 105.15C191.14 105.14 187.64 104.52 187.11 100.63C186.78 98.18 187.34 94.31 188.05 91.37C188.17 90.89 188.63 89.87 188.77 89.44C188.92 89 189.41 87.93 189.56 87.54C189.82 86.88 190.24 85.97 190.71 85.04C191.18 84.11 192.26 82.49 192.9 81.59C194.08 79.93 195.25 78.82 197.06 77.63C199.29 76.17 201.09 76.21 202.22 76.48C203.34 76.75 206.99 78.69 207.57 79.13C208.15 79.56 207.34 79.59 207.34 79.59C207.69 78.85 207.86 78.48 208.21 77.74C213.48 76.84 216.1 76.39 221.35 75.49C217.49 84.86 215.63 88.86 211.64 100.08C211.69 100.05 211.71 100.03 211.76 100C211.77 99.96 211.77 99.94 211.78 99.9C212.99 98.94 214.19 97.98 215.37 97.03C216.55 96.08 217.78 95.16 218.95 94.26C220.09 93.39 221.26 92.48 222.44 91.58C223.61 90.68 224.91 89.84 226 88.99C226.18 88.85 226.38 88.72 226.58 88.65C226.8 88.58 227.01 88.62 227.16 88.67C227.47 88.75 227.83 88.85 228.03 89.11C228.22 89.36 228.26 89.68 228.18 90.03C228.17 90.09 228.15 90.16 228.13 90.25C228.11 90.33 228.01 90.41 227.98 90.46C227.95 90.5 227.9 90.59 227.82 90.67C227.74 90.75 227.65 90.82 227.57 90.88C225.25 92.5 222.77 95.18 220.38 97.05Z" fill="white"/>
<path d="M119.24 69.83C118.68 70.23 118.03 70.41 117.33 70.35C116.62 70.29 116.04 70.03 115.62 69.55C115.2 69.07 115.04 68.49 115.13 67.84C115.23 67.19 115.57 66.65 116.13 66.22C116.69 65.79 117.34 65.6 118.05 65.66C118.76 65.72 119.33 66.01 119.76 66.51C120.18 67.01 120.34 67.6 120.23 68.25C120.12 68.89 119.8 69.43 119.24 69.83Z" fill="white"/>
<path d="M126.08 70.37C125.52 70.77 124.87 70.95 124.16 70.89C123.45 70.83 122.87 70.56 122.46 70.09C122.04 69.61 121.88 69.04 121.98 68.39C122.08 67.74 122.41 67.19 122.98 66.77C123.55 66.35 124.19 66.16 124.91 66.21C125.62 66.27 126.2 66.56 126.61 67.06C127.02 67.56 127.18 68.15 127.07 68.79C126.97 69.43 126.64 69.96 126.08 70.37Z" fill="white"/>
<path d="M96.8901 100.41C96.6201 101.65 96.1301 102.34 95.4001 102.45C93.7901 102.7 92.9801 102.82 91.3701 103.07C91.2601 103.09 91.1501 103.11 91.0501 103.12C90.9401 103.13 90.8401 103.13 90.7301 103.13C89.9801 103.13 89.4001 102.91 89.0001 102.47C88.6101 102.04 88.4101 101.54 88.4101 100.98C90.1901 92.77 91.1001 88.89 92.9401 81.1C92.8401 81.06 92.7901 81.04 92.6901 81C87.7201 88.77 85.2601 92.69 80.4501 100.83C80.3801 101.13 80.2201 101.42 79.9901 101.7C79.7601 101.98 79.4501 102.23 79.0901 102.43C78.7401 102.63 78.3301 102.8 77.9001 102.93C77.4601 103.06 77.0001 103.12 76.5101 103.12C75.2101 103.12 74.1901 102.87 73.4201 102.36C72.6601 101.85 72.2801 101.21 72.3001 100.42C72.3201 99.83 72.4201 99.26 72.6001 98.73C72.7901 98.19 73.0401 97.61 73.3501 96.99C73.6701 96.36 74.0601 95.66 74.5001 94.91C74.9401 94.15 75.4501 93.24 75.9501 92.21C76.1301 91.84 76.2701 91.44 76.4001 91.05C76.5201 90.69 76.6301 90.29 76.7301 89.84C76.8201 89.39 76.8801 88.92 76.8901 88.44C76.9101 87.94 76.8701 87.44 76.7501 86.97C76.6301 86.49 76.2901 85.96 75.2301 85.8C73.2001 85.49 70.5801 87.17 70.0101 86.95C69.4401 86.73 72.2201 79.11 76.3101 80.57C77.6101 81.03 79.4501 81.89 79.7601 83.52C79.9901 84.71 79.7701 88.01 79.7701 88.01C79.7701 88.01 83.6301 82.33 84.5101 81.03C85.3901 79.73 87.3901 77.16 88.3301 76.11C89.2701 75.06 92.0501 72.56 94.4901 72.57C95.8201 72.58 96.9001 72.96 97.6001 73.57C98.3001 74.18 98.5201 75.04 98.8301 75.96C99.1401 76.88 98.9601 81.08 98.9801 82.07C98.9701 82.08 97.1601 99.16 96.8901 100.41Z" fill="white"/>
<path d="M96.4602 95.08C96.4602 95.08 101.85 95.96 105.57 95.05C109.29 94.14 106.26 92.37 106.26 92.37C106.26 92.37 98.6902 94.05 95.9102 92.28C93.1402 90.51 96.4602 95.08 96.4602 95.08Z" fill="white"/>
<path d="M67.0502 62.84C66.3502 62.65 50.8902 60.15 41.9302 72.94C40.7302 74.51 39.6401 76.15 38.6701 77.85C37.7001 79.55 36.8402 81.26 36.1302 82.96C35.4202 84.66 34.8602 86.32 34.4702 87.91C34.0802 89.51 33.8701 90.99 33.8401 92.33C33.7901 95 34.3202 97.05 35.4302 98.5C36.5302 99.94 38.2701 100.66 40.6401 100.65C42.1101 100.64 43.5202 100.35 44.8402 99.76C46.1702 99.17 47.4202 98.4 48.5702 97.44C49.7202 96.48 50.7801 95.4 51.7601 94.2C52.7401 93 53.6002 91.78 54.3302 90.56C55.0602 89.34 55.6801 88.15 56.1701 87.01C56.6601 85.87 58.9501 81.87 59.1801 81.05C62.3201 73.75 63.9002 70.16 67.0502 62.84ZM83.2501 94.73C82.8701 95.95 80.6601 101.53 78.7901 103.17C76.9901 104.75 72.3601 109.26 61.1901 106.29C60.5401 106.12 59.5701 105.7 58.3801 104.59C57.8201 104.07 57.4502 103.25 57.1302 102.26C56.8102 101.28 56.6601 100 56.6901 98.43C56.7001 97.77 56.7702 97.05 56.8902 96.29C57.0102 95.53 57.3401 93.81 57.3401 93.81C57.3101 93.8 54.8602 97.84 53.4302 99.48C52.0002 101.12 50.4802 102.49 48.8902 103.6C47.3002 104.71 45.6601 105.54 43.9601 106.1C42.2701 106.66 40.5801 106.94 38.8901 106.94C37.0501 106.94 35.2901 106.63 33.6401 106.03C31.9901 105.43 30.5201 104.53 29.2601 103.34C28.0001 102.16 27.0002 100.67 26.2802 98.88C25.5602 97.08 25.2101 94.98 25.2501 92.56C25.2801 90.73 25.5402 88.79 26.0302 86.77C26.5202 84.75 27.2102 82.71 28.1102 80.65C29.0102 78.59 30.0801 76.55 31.3401 74.55C32.6001 72.54 34.0201 70.63 35.6001 68.84C37.1901 67.04 38.9302 65.39 40.8102 63.87C42.6802 62.35 44.6802 61.04 46.8102 59.93C48.9302 58.82 51.1902 57.96 53.5402 57.33C55.8902 56.7 58.5101 56.03 61.0401 56.03C61.7401 56.03 75.1001 55.95 75.3901 61.68C75.6801 62.99 75.3701 62.75 74.6701 64.94C74.3201 66.02 70.8801 73.52 69.6801 75.75C68.8901 77.22 66.8801 81.94 66.3601 83.42C65.8401 84.89 64.1501 90.37 64.0901 91.09C64.0301 91.81 63.7201 93.63 63.7001 94.39C63.6801 95 63.5202 97.56 64.5502 98.36C69.5502 102.23 75.3702 93.24 75.9402 92.24C78.8702 93.22 80.3301 93.73 83.2501 94.73Z" fill="white"/>
</svg>
